<svg width="20" height="20" viewBox="0 0 20 20" fill="none" xmlns="http://www.w3.org/2000/svg">
<path fill-rule="evenodd" clip-rule="evenodd" d="M17.0394 8.62543C17.0394 10.4314 17.5224 12.2044 18.4382 13.7609L19.4258 15.4394C19.6245 15.777 19.3811 16.2025 18.9895 16.2025H14.2415C14.1846 16.5395 14.0898 16.8697 13.9584 17.1869C13.7294 17.7398 13.3937 18.2421 12.9706 18.6653C12.5474 19.0884 12.0451 19.4241 11.4922 19.6531C10.9393 19.8821 10.3467 20 9.74832 20C9.14989 20 8.55732 19.8821 8.00444 19.6531C7.45157 19.4241 6.94921 19.0884 6.52606 18.6653C6.10291 18.2421 5.76724 17.7398 5.53823 17.1869C5.40685 16.8697 5.31205 16.5395 5.25509 16.2025H0.507098C0.115467 16.2025 -0.1279 15.777 0.0707078 15.4394L1.05835 13.7609C1.97419 12.2044 2.45714 10.4314 2.45714 8.62543V6.7045C2.45714 3.0017 5.72149 0 9.74828 0C13.7751 0 17.0394 3.0017 17.0394 6.7045V8.62543ZM3.97612 6.7045C3.97612 3.95806 6.43794 1.51899 9.74828 1.51899C13.0586 1.51899 15.5204 3.95806 15.5204 6.7045V8.62543C15.5204 10.7023 16.0758 12.7413 17.129 14.5312L17.2186 14.6835H2.27791L2.36752 14.5312C3.42074 12.7413 3.97612 10.7023 3.97612 8.62543V6.7045ZM6.80681 16.2025C6.8422 16.3396 6.88719 16.4743 6.9416 16.6056C7.09427 16.9742 7.31804 17.3091 7.60015 17.5912C7.88225 17.8733 8.21715 18.0971 8.58574 18.2498C8.95432 18.4024 9.34937 18.481 9.74832 18.481C10.1473 18.481 10.5423 18.4024 10.9109 18.2498C11.2795 18.0971 11.6144 17.8733 11.8965 17.5912C12.1786 17.3091 12.4024 16.9742 12.555 16.6056C12.6094 16.4743 12.6544 16.3396 12.6898 16.2025H6.80681Z" fill="#687684"/>
</svg>
