<svg width="51" height="31" viewBox="0 0 51 31" fill="none" xmlns="http://www.w3.org/2000/svg">
<path fill-rule="evenodd" clip-rule="evenodd" d="M15.8569 0.0921518C17.5969 -0.00784777 19.3349 0.000152199 21.0749 0.000152199C21.0869 0.000152199 29.8919 0.000152199 29.8919 0.000152199C31.6659 0.000152199 33.4039 -0.00784777 35.1429 0.0921518C36.7239 0.182151 38.2638 0.374151 39.7968 0.803149C43.0238 1.70515 45.8418 3.58914 47.8788 6.26013C49.9038 8.91412 50.9998 12.1631 50.9998 15.4991C50.9998 18.8391 49.9038 22.0861 47.8788 24.7401C45.8418 27.41 43.0238 29.295 39.7968 30.197C38.2638 30.626 36.7239 30.817 35.1429 30.908C33.4039 31.008 31.6659 30.999 29.9259 30.999C29.9139 30.999 21.1069 31 21.1069 31C19.3349 30.999 17.5969 31.008 15.8569 30.908C14.2769 30.817 12.737 30.626 11.204 30.197C7.97697 29.295 5.15898 27.41 3.12199 24.7401C1.097 22.0861 0 18.8391 0 15.5001C0 12.1631 1.097 8.91412 3.12199 6.26013C5.15898 3.58914 7.97697 1.70515 11.204 0.803149C12.737 0.374151 14.2769 0.182151 15.8569 0.0921518Z" fill="#E9E9EA"/>
</svg>
