<svg width="23" height="22" viewBox="0 0 23 22" fill="none" xmlns="http://www.w3.org/2000/svg">
<path d="M19.75 4.25H19.25V4.75V7.25C19.25 7.38807 19.1381 7.5 19 7.5C18.8619 7.5 18.75 7.38807 18.75 7.25V4.75V4.25H18.25H15.75C15.6119 4.25 15.5 4.13807 15.5 4C15.5 3.86193 15.6119 3.75 15.75 3.75H18.25H18.75V3.25V0.75C18.75 0.611929 18.8619 0.5 19 0.5C19.1381 0.5 19.25 0.611929 19.25 0.75V3.25V3.75H19.75H22.25C22.3881 3.75 22.5 3.86193 22.5 4C22.5 4.13807 22.3881 4.25 22.25 4.25H19.75ZM1.78038 7.22066L1 6.69214V7.63465V19.25C1 19.8023 1.44772 20.25 2 20.25H18C18.5523 20.25 19 19.8023 19 19.25V11C19 10.8619 19.1119 10.75 19.25 10.75C19.3881 10.75 19.5 10.8619 19.5 11V19.25C19.5 20.0784 18.8284 20.75 18 20.75H2C1.17157 20.75 0.5 20.0784 0.5 19.25V5.25C0.5 4.42157 1.17157 3.75 2 3.75H12.25C12.3881 3.75 12.5 3.86193 12.5 4C12.5 4.13807 12.3881 4.25 12.25 4.25H2C1.44771 4.25 1 4.69772 1 5.25V5.82301V6.08826L1.21962 6.237L9.93132 12.1371C10.2792 12.3728 10.7374 12.3658 11.0779 12.1196L15.1035 9.20952C15.2689 9.09001 15.5 9.20813 15.5 9.41213C15.5 9.49236 15.4615 9.56773 15.3965 9.61473L11.3708 12.5248C10.86 12.8941 10.1728 12.9046 9.65094 12.5511L1.78038 7.22066Z" fill="white" stroke="white"/>
</svg>
