<svg width="23" height="21" viewBox="0 0 23 21" fill="none" xmlns="http://www.w3.org/2000/svg">
<path fill-rule="evenodd" clip-rule="evenodd" d="M15.5889 10.6785C15.5889 12.9367 13.7582 14.7674 11.5 14.7674C9.2418 14.7674 7.41116 12.9367 7.41116 10.6785C7.41116 8.42032 9.2418 6.58968 11.5 6.58968C13.7582 6.58968 15.5889 8.42032 15.5889 10.6785ZM14.0555 10.6785C14.0555 12.0899 12.9114 13.2341 11.5 13.2341C10.0886 13.2341 8.94448 12.0899 8.94448 10.6785C8.94448 9.26715 10.0886 8.123 11.5 8.123C12.9114 8.123 14.0555 9.26715 14.0555 10.6785Z" fill="#687684"/>
<path fill-rule="evenodd" clip-rule="evenodd" d="M1.14716 7.25533L2.25341 6.62318L3.73098 17.3356C3.99259 19.2323 5.61364 20.6451 7.52832 20.6451H15.4717C17.3864 20.6451 19.0074 19.2323 19.269 17.3356L20.7466 6.62319L21.8529 7.25533C22.2205 7.4654 22.6888 7.33768 22.8989 6.97005C23.1089 6.60242 22.9812 6.13411 22.6136 5.92404L12.8947 0.370379C12.0305 -0.12346 10.9695 -0.12346 10.1053 0.370379L0.38642 5.92404C0.0187944 6.13411 -0.108928 6.60242 0.101144 6.97005C0.311216 7.33768 0.779532 7.4654 1.14716 7.25533ZM12.134 1.70167C11.7411 1.4772 11.2589 1.4772 10.8661 1.70167L3.68816 5.80333L5.24991 17.1261C5.40688 18.2641 6.37951 19.1118 7.52832 19.1118H15.4717C16.6205 19.1118 17.5931 18.2641 17.7501 17.1261L19.3119 5.80333L12.134 1.70167Z" fill="#687684"/>
</svg>
