<svg width="18" height="13" viewBox="0 0 18 13" fill="none" xmlns="http://www.w3.org/2000/svg">
<path d="M3.48431 0.146689C3.28873 -0.0488965 2.97162 -0.0488962 2.77603 0.146689L0.183361 2.73936C-0.0611204 2.98384 -0.0611204 3.38023 0.183361 3.62471C0.427843 3.86919 0.824226 3.86919 1.06871 3.62471L2.50414 2.18928V9.6928C2.50414 11.4215 3.90556 12.823 5.63431 12.823H9.64093C9.98668 12.823 10.267 12.5427 10.267 12.1969C10.267 11.8512 9.98668 11.5709 9.64093 11.5709H5.63431C4.59706 11.5709 3.75621 10.73 3.75621 9.6928V2.18928L5.19164 3.62471C5.43612 3.86919 5.8325 3.86919 6.07698 3.62471C6.32147 3.38023 6.32147 2.98384 6.07698 2.73936L3.48431 0.146689Z" fill="#687684"/>
<path d="M14.4203 12.8533C14.6159 13.0489 14.933 13.0489 15.1286 12.8533L17.7212 10.2606C17.9657 10.0162 17.9657 9.61977 17.7212 9.37529C17.4767 9.13081 17.0804 9.13081 16.8359 9.37529L15.4005 10.8107V3.3072C15.4005 1.57846 13.999 0.177031 12.2703 0.177031H8.26366C7.91791 0.177031 7.63762 0.457317 7.63762 0.803066C7.63762 1.14881 7.91791 1.4291 8.26366 1.4291H12.2703C13.3075 1.4291 14.1484 2.26996 14.1484 3.3072V10.8107L12.713 9.37529C12.4685 9.13081 12.0721 9.13081 11.8276 9.37529C11.5831 9.61977 11.5831 10.0162 11.8276 10.2606L14.4203 12.8533Z" fill="#687684"/>
</svg>
