<svg width="22" height="22" viewBox="0 0 22 22" fill="none" xmlns="http://www.w3.org/2000/svg">
<path d="M19 0.75C19 0.335786 18.6642 0 18.25 0C17.8358 0 17.5 0.335786 17.5 0.75V3H15.25C14.8358 3 14.5 3.33579 14.5 3.75C14.5 4.16421 14.8358 4.5 15.25 4.5H17.5V6.75C17.5 7.16421 17.8358 7.5 18.25 7.5C18.6642 7.5 19 7.16421 19 6.75V4.5H21.25C21.6642 4.5 22 4.16421 22 3.75C22 3.33579 21.6642 3 21.25 3H19V0.75Z" fill="white"/>
<path d="M2.75 3C1.23122 3 0 4.23122 0 5.75V19.25C0 20.7688 1.23122 22 2.75 22H16.25C17.7688 22 19 20.7688 19 19.25V10.75C19 10.3358 18.6642 10 18.25 10C17.8358 10 17.5 10.3358 17.5 10.75V19.25C17.5 19.9404 16.9404 20.5 16.25 20.5H2.75C2.05964 20.5 1.5 19.9404 1.5 19.25V5.75C1.5 5.05964 2.05964 4.5 2.75 4.5H11.25C11.6642 4.5 12 4.16421 12 3.75C12 3.33579 11.6642 3 11.25 3H2.75Z" fill="white"/>
<path d="M4.75 7.75C4.33579 7.75 4 8.08579 4 8.5C4 8.91421 4.33579 9.25 4.75 9.25H14.25C14.6642 9.25 15 8.91421 15 8.5C15 8.08579 14.6642 7.75 14.25 7.75H4.75Z" fill="white"/>
<path d="M4 12.5C4 12.0858 4.33579 11.75 4.75 11.75H14.25C14.6642 11.75 15 12.0858 15 12.5C15 12.9142 14.6642 13.25 14.25 13.25H4.75C4.33579 13.25 4 12.9142 4 12.5Z" fill="white"/>
<path d="M9.75 15.5L4.74999 15.5C4.33578 15.5 4 15.8358 4 16.25C4 16.6643 4.3358 17 4.75001 17L9.75 17C10.1642 17 10.5 16.6642 10.5 16.25C10.5 15.8358 10.1642 15.5 9.75 15.5Z" fill="white"/>
</svg>
