<svg width="19" height="19" viewBox="0 0 19 19" fill="none" xmlns="http://www.w3.org/2000/svg">
<path d="M6.32268 7.37646C7.19566 7.37646 7.90335 6.66877 7.90335 5.79579C7.90335 4.92281 7.19566 4.21512 6.32268 4.21512C5.4497 4.21512 4.74201 4.92281 4.74201 5.79579C4.74201 6.66877 5.4497 7.37646 6.32268 7.37646Z" fill="#4C9EEB"/>
<path fill-rule="evenodd" clip-rule="evenodd" d="M18.968 2.10756V12.0545L19 12.0865L18.968 12.1185V16.8605C18.968 18.0244 18.0244 18.968 16.8605 18.968H13.6991L13.6672 19L13.6352 18.968H2.10756C0.943586 18.968 0 18.0244 0 16.8605V2.10756C0 0.943586 0.943587 0 2.10756 0H16.8605C18.0244 0 18.968 0.943587 18.968 2.10756ZM2.10756 1.58067H16.8605C17.1515 1.58067 17.3874 1.81657 17.3874 2.10756V10.4739L14.9649 8.05144C14.2714 7.35791 13.1563 7.32858 12.4273 7.98471L8.45888 11.5563L7.62666 10.7241C6.90649 10.0039 5.73886 10.0039 5.01869 10.7241L1.58067 14.1621V2.10756C1.58067 1.81657 1.81657 1.58067 2.10756 1.58067ZM13.8472 9.16915L17.3874 12.7093V16.8605C17.3874 17.1515 17.1515 17.3874 16.8605 17.3874H14.2899L9.57813 12.6755L13.4847 9.15961C13.5889 9.06588 13.7482 9.07007 13.8472 9.16915ZM1.58067 16.3336V16.8605C1.58067 17.1515 1.81657 17.3874 2.10756 17.3874H12.0545L6.50896 11.8418C6.40608 11.7389 6.23928 11.7389 6.13639 11.8418L1.61263 16.3655L1.58067 16.3336Z" fill="#4C9EEB"/>
</svg>
