<svg width="19" height="14" viewBox="0 0 19 14" fill="none" xmlns="http://www.w3.org/2000/svg">
<path fill-rule="evenodd" clip-rule="evenodd" d="M4.03816 0.227142C3.73531 -0.0757142 3.24428 -0.0757136 2.94143 0.227142L0.264999 2.90357C-0.0883329 3.2569 -0.0883329 3.82977 0.264999 4.1831C0.61833 4.53643 1.19119 4.53643 1.54453 4.1831L2.58503 3.14259V10.2644C2.58503 12.1918 4.14747 13.7542 6.07483 13.7542H10.2109C10.7106 13.7542 11.1156 13.3491 11.1156 12.8495C11.1156 12.3498 10.7106 11.9447 10.2109 11.9447H6.07483C5.14684 11.9447 4.39456 11.1924 4.39456 10.2644V3.14259L5.43507 4.1831C5.7884 4.53643 6.36126 4.53643 6.71459 4.1831C7.06792 3.82977 7.06792 3.2569 6.71459 2.90357L4.03816 0.227142ZM8.78912 0.18275C8.28943 0.18275 7.88435 0.587826 7.88435 1.08751C7.88435 1.5872 8.28943 1.99227 8.78912 1.99227H12.9252C13.8532 1.99227 14.6054 2.74456 14.6054 3.67255V10.7944L13.5649 9.75387C13.2116 9.40054 12.6387 9.40054 12.2854 9.75387C11.9321 10.1072 11.9321 10.6801 12.2854 11.0334L14.9618 13.7098C15.2647 14.0127 15.7557 14.0127 16.0586 13.7098L18.735 11.0334C19.0883 10.6801 19.0883 10.1072 18.735 9.75387C18.3817 9.40054 17.8088 9.40054 17.4555 9.75387L16.415 10.7944V3.67255C16.415 1.74519 14.8525 0.18275 12.9252 0.18275H8.78912Z" fill="#59BC6C"/>
</svg>
