<svg width="21" height="21" viewBox="0 0 21 21" fill="none" xmlns="http://www.w3.org/2000/svg">
<path fill-rule="evenodd" clip-rule="evenodd" d="M14.6338 16.6826C13.1135 17.7874 11.2426 18.439 9.21951 18.439C4.12772 18.439 0 14.3113 0 9.21951C0 4.12772 4.12772 0 9.21951 0C14.3113 0 18.439 4.12772 18.439 9.21951C18.439 11.1787 17.8279 12.9951 16.7859 14.4886L20.5499 18.2526C21.15 18.8527 21.15 19.8256 20.5499 20.4257C19.9499 21.0257 18.977 21.0257 18.3769 20.4257L14.6338 16.6826ZM15.3659 9.21951C15.3659 12.614 12.614 15.3659 9.21951 15.3659C5.82498 15.3659 3.07317 12.614 3.07317 9.21951C3.07317 5.82498 5.82498 3.07317 9.21951 3.07317C12.614 3.07317 15.3659 5.82498 15.3659 9.21951Z" fill="#4C9EEB"/>
</svg>
