<svg width="23" height="22" viewBox="0 0 23 22" fill="none" xmlns="http://www.w3.org/2000/svg">
<path d="M4.29885 0.758621C4.29885 0.339646 3.9592 0 3.54023 0C3.12126 0 2.78161 0.339646 2.78161 0.758621V2.78161L0.758621 2.78161C0.339646 2.78161 0 3.12126 0 3.54023C0 3.9592 0.339646 4.29885 0.758621 4.29885H2.78161V6.32184C2.78161 6.74081 3.12126 7.08046 3.54023 7.08046C3.9592 7.08046 4.29885 6.74081 4.29885 6.32184V4.29885L6.32184 4.29885C6.74081 4.29885 7.08046 3.9592 7.08046 3.54023C7.08046 3.12125 6.74081 2.78161 6.32184 2.78161H4.29885V0.758621Z" fill="#4C9EEB"/>
<path fill-rule="evenodd" clip-rule="evenodd" d="M13.1302 0.718783C13.3544 -0.0625497 14.4616 -0.0625497 14.6859 0.718783L16.6132 7.4354L22.3488 9.34727C23.0866 9.59319 23.0866 10.6367 22.3488 10.8826L16.6132 12.7945L14.6859 19.5111C14.4616 20.2924 13.3544 20.2924 13.1302 19.5111L11.2029 12.7945L5.46726 10.8826C4.72952 10.6367 4.72952 9.59319 5.46726 9.34727L11.2029 7.4354L13.1302 0.718783ZM13.908 3.50899L12.5584 8.21238C12.4848 8.4688 12.2896 8.67249 12.0365 8.75685L7.96219 10.1149L12.0365 11.473C12.2896 11.5574 12.4848 11.7611 12.5584 12.0175L13.908 16.7209L15.2577 12.0175C15.3313 11.7611 15.5265 11.5574 15.7796 11.473L19.8539 10.1149L15.7796 8.75685C15.5265 8.67249 15.3313 8.4688 15.2577 8.21238L13.908 3.50899Z" fill="#4C9EEB"/>
<path d="M6.82759 16.4368C7.24656 16.4368 7.58621 16.7764 7.58621 17.1954V18.4598H8.85057C9.26955 18.4598 9.6092 18.7994 9.6092 19.2184C9.6092 19.6374 9.26955 19.977 8.85057 19.977H7.58621V21.2414C7.58621 21.6604 7.24656 22 6.82759 22C6.40861 22 6.06897 21.6604 6.06897 21.2414V19.977H4.8046C4.38562 19.977 4.04598 19.6374 4.04598 19.2184C4.04598 18.7994 4.38562 18.4598 4.8046 18.4598H6.06897V17.1954C6.06897 16.7764 6.40861 16.4368 6.82759 16.4368Z" fill="#4C9EEB"/>
</svg>
