<svg width="23" height="21" viewBox="0 0 23 21" fill="none" xmlns="http://www.w3.org/2000/svg">
<path fill-rule="evenodd" clip-rule="evenodd" d="M2.25341 6.62318L1.14716 7.25533C0.779532 7.4654 0.311216 7.33768 0.101144 6.97005C-0.108928 6.60242 0.0187944 6.13411 0.38642 5.92404L10.1053 0.370379C10.9695 -0.12346 12.0305 -0.12346 12.8947 0.370379L22.6136 5.92404C22.9812 6.13411 23.1089 6.60242 22.8989 6.97005C22.6888 7.33768 22.2205 7.4654 21.8529 7.25533L20.7466 6.62319L19.269 17.3356C19.0074 19.2323 17.3864 20.6451 15.4717 20.6451H7.52832C5.61364 20.6451 3.99259 19.2323 3.73098 17.3356L2.25341 6.62318ZM11.5001 13.7451C13.3349 13.7451 14.8223 12.2577 14.8223 10.4229C14.8223 8.58815 13.3349 7.10076 11.5001 7.10076C9.66533 7.10076 8.17794 8.58815 8.17794 10.4229C8.17794 12.2577 9.66533 13.7451 11.5001 13.7451Z" fill="#4C9EEB"/>
</svg>
