<svg width="20" height="18" viewBox="0 0 20 18" fill="none" xmlns="http://www.w3.org/2000/svg">
<path d="M2 0C0.895431 0 0 0.89543 0 2V2.05577C0 2.07267 0.00853375 2.08842 0.0226866 2.09765L9.86343 8.51553C9.94643 8.56966 10.0536 8.56966 10.1366 8.51553L19.9773 2.09765C19.9915 2.08842 20 2.07267 20 2.05577V2C20 0.895431 19.1046 0 18 0H2Z" fill="#4C9EEB"/>
<path d="M20 3.96597C20 3.92626 19.9559 3.9024 19.9227 3.92409L10.956 9.77195C10.375 10.1509 9.62502 10.1509 9.04403 9.77195L0.0773134 3.92409C0.044055 3.9024 0 3.92626 0 3.96597V16C0 17.1046 0.895431 18 2 18H18C19.1046 18 20 17.1046 20 16V3.96597Z" fill="#4C9EEB"/>
</svg>
