<svg width="18" height="23" viewBox="0 0 18 23" fill="none" xmlns="http://www.w3.org/2000/svg">
<path d="M5.19718 6.84507C4.77714 6.84507 4.43662 7.18559 4.43662 7.60563C4.43662 8.02568 4.77714 8.3662 5.19718 8.3662H12.8028C13.2229 8.3662 13.5634 8.02568 13.5634 7.60563C13.5634 7.18559 13.2229 6.84507 12.8028 6.84507H5.19718Z" fill="#687684"/>
<path d="M4.43662 10.6479C4.43662 10.2278 4.77714 9.88732 5.19718 9.88732H9.76056C10.1806 9.88732 10.5211 10.2278 10.5211 10.6479C10.5211 11.0679 10.1806 11.4085 9.76056 11.4085H5.19718C4.77714 11.4085 4.43662 11.0679 4.43662 10.6479Z" fill="#687684"/>
<path fill-rule="evenodd" clip-rule="evenodd" d="M3.83859 16.3729C5.14281 17.2859 6.66196 17.834 8.23943 17.9678V21.8306C8.23943 22.5157 9.07421 22.8515 9.54866 22.3573C9.62059 22.2824 9.69912 22.2008 9.78363 22.1131L9.78631 22.1103C10.7904 21.0676 12.6357 19.1515 14.3076 17.0282C15.2149 15.8759 16.0846 14.646 16.7456 13.4461C17.3992 12.2598 17.8868 11.0358 17.955 9.90957L17.9539 9.9095C18.1188 8.28626 17.8396 6.64444 17.1405 5.16169C16.3537 3.49303 15.0731 2.10647 13.4721 1.18976C11.8712 0.273045 10.0272 -0.129528 8.1898 0.0365496C6.35244 0.202628 4.6105 0.929333 3.19986 2.11826C1.78922 3.30719 0.778026 4.90091 0.303203 6.68361C-0.17162 8.46631 -0.0871306 10.3519 0.54523 12.0849C1.17759 13.818 2.32727 15.3149 3.83859 16.3729ZM12.7163 2.5098C11.3859 1.74802 9.85355 1.41349 8.32673 1.5515C6.79991 1.68951 5.35239 2.29339 4.18017 3.28138C3.00794 4.26936 2.16766 5.59372 1.77308 7.07511C1.37851 8.55651 1.44872 10.1234 1.97421 11.5635C2.49969 13.0037 3.45506 14.2476 4.71094 15.1268C5.96683 16.006 7.46257 16.478 8.99561 16.4789H9.25351C9.53354 16.4789 9.76056 16.7059 9.76056 16.9859V19.9342C10.739 18.895 11.9688 17.5396 13.1125 16.0872C13.992 14.9701 14.8072 13.8123 15.4133 12.7121C15.9165 11.7987 16.2504 10.9696 16.3807 10.2637C16.6394 8.75268 16.4184 7.19706 15.7646 5.81042C15.1108 4.42379 14.0467 3.27157 12.7163 2.5098Z" fill="#687684"/>
</svg>
