<svg width="15" height="15" viewBox="0 0 15 15" fill="none" xmlns="http://www.w3.org/2000/svg">
<path d="M12.0454 7.98261C11.7635 8.21178 11.3493 8.16962 11.1194 7.88835C10.8838 7.60017 10.9333 7.17419 11.2289 6.94785L12.4031 6.04847C13.5331 5.0536 13.6427 3.33102 12.6479 2.20098C11.653 1.07093 9.93041 0.961347 8.80036 1.95621L6.52597 3.95854C5.39593 4.9534 5.28635 6.67598 6.28121 7.80603C6.64405 8.21817 6.86264 8.41012 7.19811 8.49174C7.51075 8.5678 7.76765 8.8223 7.73638 9.14254C7.73234 9.18396 7.72357 9.22478 7.71024 9.2642L7.70582 9.27727C7.60699 9.56958 7.3185 9.76315 7.01579 9.70335C6.34597 9.57101 5.88909 9.29196 5.32333 8.64933C3.86272 6.99026 4.0236 4.46126 5.68267 3.00065L7.95706 0.998329C9.61613 -0.462279 12.1451 -0.301391 13.6057 1.35768C15.0663 3.01674 14.9055 5.54574 13.2464 7.00635L12.0454 7.98261Z" fill="#687684"/>
<path d="M2.55837 7.01745C2.84027 6.78826 3.25448 6.83039 3.48446 7.11165C3.72009 7.39982 3.67052 7.8258 3.37502 8.05216L2.20084 8.95161C1.07086 9.94655 0.96139 11.6691 1.95633 12.7991C2.95127 13.9291 4.67385 14.0386 5.80383 13.0436L8.0781 11.0412C9.20808 10.0462 9.31755 8.32365 8.32261 7.19367C7.95975 6.78155 7.74115 6.58961 7.40568 6.50801C7.09303 6.43197 6.83611 6.17749 6.86736 5.85724C6.8714 5.81583 6.88017 5.77501 6.89349 5.73558L6.89791 5.72251C6.99672 5.4302 7.2852 5.23661 7.58792 5.2964C8.25775 5.42869 8.71464 5.70771 9.28044 6.35031C10.7412 8.00928 10.5804 10.5383 8.92146 11.999L6.64719 14.0015C4.98822 15.4622 2.45921 15.3015 0.998497 13.6425C-0.462215 11.9835 -0.301491 9.4545 1.35748 7.99378L2.55837 7.01745Z" fill="#687684"/>
</svg>
