<svg width="16" height="15" viewBox="0 0 16 15" fill="none" xmlns="http://www.w3.org/2000/svg">
<path fill-rule="evenodd" clip-rule="evenodd" d="M7.36883 0.148408C7.56671 -0.0494692 7.88753 -0.0494694 8.08541 0.148408L11.7219 3.78486C11.9692 4.0322 11.9692 4.43323 11.7219 4.68058C11.4745 4.92792 11.0735 4.92792 10.8261 4.68058L8.36049 2.21493V9.80638C8.36049 10.1562 8.07692 10.4398 7.72712 10.4398C7.37732 10.4398 7.09375 10.1562 7.09375 9.80638V2.21493L4.62811 4.68058C4.38076 4.92792 3.97973 4.92792 3.73239 4.68058C3.48504 4.43323 3.48504 4.0322 3.73239 3.78486L7.36883 0.148408ZM0.633371 8.15962C0.983172 8.15962 1.26674 8.44318 1.26674 8.79299V12.8466C1.26674 13.3363 1.66374 13.7333 2.15346 13.7333H13.3008C13.7905 13.7333 14.1875 13.3363 14.1875 12.8466V8.79299C14.1875 8.44318 14.4711 8.15962 14.8209 8.15962C15.1707 8.15962 15.4542 8.44318 15.4542 8.79299V12.8466C15.4542 14.0359 14.4901 15 13.3008 15H2.15346C0.964137 15 0 14.0359 0 12.8466V8.79299C0 8.44318 0.28357 8.15962 0.633371 8.15962Z" fill="#687684"/>
</svg>
