<svg width="21" height="21" viewBox="0 0 21 21" fill="none" xmlns="http://www.w3.org/2000/svg">
<path fill-rule="evenodd" clip-rule="evenodd" d="M12.8196 0.837636C13.9365 -0.279211 15.7472 -0.279213 16.8641 0.837636L20.1624 4.13592C21.2792 5.25277 21.2792 7.06354 20.1624 8.18038L8.18171 20.161C8.00617 20.3366 7.77363 20.4435 7.52612 20.4626L0.559894 20.9984C0.241959 21.0229 -0.0228876 20.758 0.0015689 20.4401L0.537432 13.4739C0.556472 13.2264 0.663426 12.9938 0.838964 12.8183L12.8196 0.837636ZM15.761 1.94067C15.2534 1.43301 14.4303 1.43301 13.9227 1.94067L12.825 3.0383L17.9617 8.17497L19.0593 7.07735C19.567 6.56969 19.567 5.74661 19.0593 5.23895L15.761 1.94067ZM16.8587 9.27801L11.722 4.14133L3.16087 12.7025C2.75474 13.1086 2.75474 13.767 3.16087 14.1732L6.82683 17.8391C7.23296 18.2453 7.89142 18.2453 8.29755 17.8391L16.8587 9.27801ZM5.81155 19.0299L1.97008 15.1885L1.69648 18.7452C1.67203 19.0631 1.93687 19.328 2.25481 19.3035L5.81155 19.0299Z" fill="#687684"/>
</svg>
