<svg width="17" height="21" viewBox="0 0 17 21" fill="none" xmlns="http://www.w3.org/2000/svg">
<path fill-rule="evenodd" clip-rule="evenodd" d="M13.3171 5.89024C13.3171 9.9878 10.5 10.5 8.45122 10.5C6.40244 10.5 3.58537 9.9878 3.58537 5.89024C3.58537 2.81707 5.37805 0 8.45122 0C11.5244 0 13.3171 2.81707 13.3171 5.89024ZM11.7805 5.89024C11.7805 7.54295 11.2435 8.15756 10.8001 8.45319C10.2331 8.83117 9.40388 8.96341 8.45122 8.96341C7.49856 8.96341 6.66931 8.83117 6.10234 8.45319C5.65889 8.15756 5.12195 7.54295 5.12195 5.89024C5.12195 4.63381 5.49132 3.50433 6.08645 2.72608C6.65715 1.97978 7.43921 1.53659 8.45122 1.53659C9.46323 1.53659 10.2453 1.97978 10.816 2.72608C11.4111 3.50433 11.7805 4.63381 11.7805 5.89024Z" fill="#687684"/>
<path fill-rule="evenodd" clip-rule="evenodd" d="M0 18.9512C0 20.0827 0.91727 21 2.04878 21H14.8537C15.9852 21 16.9024 20.0827 16.9024 18.9512V18.6518C16.9024 17.4273 16.3132 16.1433 14.9869 14.6076C13.633 13.0399 11.5043 11.7805 8.45122 11.7805C5.39817 11.7805 3.26939 13.0399 1.91549 14.6076C0.589226 16.1433 0 17.4273 0 18.6518V18.9512ZM3.07841 15.6119C1.97175 16.8933 1.53659 17.8276 1.53659 18.6518V18.8488C1.53659 19.1882 1.81177 19.4634 2.15122 19.4634H14.7512C15.0907 19.4634 15.3659 19.1882 15.3659 18.8488V18.6518C15.3659 17.8276 14.9307 16.8933 13.824 15.6119C12.745 14.3625 11.0323 13.3171 8.45122 13.3171C5.87012 13.3171 4.15744 14.3625 3.07841 15.6119Z" fill="#687684"/>
</svg>
