<svg width="9" height="14" viewBox="0 0 9 14" fill="none" xmlns="http://www.w3.org/2000/svg">
<path d="M4.35849 0C4.72321 0 5.01887 0.295661 5.01887 0.660377V13.3396C5.01887 13.7043 4.72321 14 4.35849 14C3.99377 14 3.69811 13.7043 3.69811 13.3396V0.660377C3.69811 0.295661 3.99377 0 4.35849 0Z" fill="#687684"/>
<path d="M0.660377 5.81132C1.02509 5.81132 1.32075 6.10698 1.32075 6.4717V13.3396C1.32075 13.7043 1.02509 14 0.660377 14C0.295661 14 0 13.7043 0 13.3396V6.4717C0 6.10698 0.295661 5.81132 0.660377 5.81132Z" fill="#687684"/>
<path d="M8.71698 4.35849C8.71698 3.99377 8.42132 3.69811 8.0566 3.69811C7.69189 3.69811 7.39623 3.99377 7.39623 4.35849V13.3396C7.39623 13.7043 7.69189 14 8.0566 14C8.42132 14 8.71698 13.7043 8.71698 13.3396V4.35849Z" fill="#687684"/>
</svg>
