<svg width="15" height="22" viewBox="0 0 15 22" fill="none" xmlns="http://www.w3.org/2000/svg">
<path fill-rule="evenodd" clip-rule="evenodd" d="M1.65214 0.439847C1.69214 0.186554 1.91046 0 2.16689 0H10.0076C10.3393 0 10.5866 0.305908 10.5171 0.630313L9.08882 7.29572H14.4105C14.8524 7.29572 15.0937 7.81103 14.8109 8.15045L3.42738 21.8107C3.08862 22.2172 2.42977 21.9185 2.5123 21.3958L4.08036 11.4647H0.52124C0.201019 11.4647 -0.0434482 11.1786 0.00649416 10.8623L1.65214 0.439847ZM3.05748 1.56337L1.74096 9.90133H5.30008C5.6203 9.90133 5.86477 10.1874 5.81483 10.5037L4.64601 17.9062L12.1853 8.85908H7.79958C7.46781 8.85908 7.22051 8.55318 7.29002 8.22877L8.71832 1.56337H3.05748Z" fill="#687684"/>
</svg>
