<svg width="10" height="12" viewBox="0 0 10 12" fill="none" xmlns="http://www.w3.org/2000/svg">
<path d="M1.93438 0C1.58353 0 1.40783 0.424187 1.65591 0.672274L2.54898 1.56535V4.78126L2.37699 4.89592C1.54829 5.44839 0.837199 6.15948 0.284734 6.98818L0.0668034 7.31507C-0.107676 7.57679 0.0799515 7.92733 0.394473 7.92733H3.17818L4.6096 11.7444C4.73738 12.0851 5.2193 12.0851 5.34706 11.7444L6.77847 7.92733H9.56218C9.87674 7.92733 10.0643 7.57675 9.88985 7.31507L9.67192 6.98818C9.18078 6.25147 8.56428 5.60771 7.85123 5.08571C7.73496 4.99746 7.61587 4.91268 7.4941 4.8315L7.40767 4.77388V1.56535L8.30074 0.672274C8.51571 0.457308 8.41248 0.110187 8.1529 0.0212785L8.15672 0.0174617C8.16317 0.0110179 8.1586 0 8.14949 0H1.93438Z" fill="#687684"/>
</svg>
