<svg width="297" height="18" viewBox="0 0 297 18" fill="none" xmlns="http://www.w3.org/2000/svg">
<path fill-rule="evenodd" clip-rule="evenodd" d="M189.961 0.150396C191.051 -0.141566 192.202 -0.00504681 193.201 0.530358L193.613 0.751009C194.111 1.01743 194.548 1.38159 194.905 1.81817C194.955 1.8793 195.045 1.8793 195.095 1.81817C195.452 1.38159 195.889 1.01743 196.387 0.751009L196.799 0.530358C197.798 -0.00504681 198.949 -0.141566 200.039 0.150396C201.086 0.430973 202.001 1.08628 202.635 1.99281L202.866 2.32305C203.605 3.37766 204 4.65415 204 5.96096V6.32979C204 6.91456 203.933 7.49738 203.801 8.06532L203.72 8.41077C203.417 9.71042 202.873 10.9347 202.12 12.011L201.65 12.6819C201.273 13.2214 200.859 13.7318 200.414 14.2093L199.937 14.7196C198.795 15.9441 197.473 16.9651 196.023 17.742C195.381 18.086 194.619 18.086 193.977 17.742C192.527 16.9651 191.205 15.9441 190.063 14.7196L189.586 14.2093C189.141 13.7318 188.727 13.2214 188.35 12.6819L187.88 12.011C187.127 10.9347 186.583 9.71042 186.28 8.41077L186.199 8.06532C186.067 7.49738 186 6.91456 186 6.32979V5.96096C186 4.65415 186.395 3.37766 187.134 2.32305L187.365 1.99281C187.999 1.08628 188.914 0.430973 189.961 0.150396ZM192.505 1.83091C191.832 1.47057 191.067 1.38174 190.343 1.57557C189.645 1.76238 189.018 2.20376 188.573 2.83893L188.342 3.16917C187.782 3.96949 187.475 4.94911 187.475 5.96096V6.32979C187.475 6.80213 187.529 7.27244 187.636 7.73005L187.717 8.0755C187.978 9.19565 188.445 10.2459 189.089 11.1649L189.558 11.8358C189.897 12.3193 190.267 12.776 190.665 13.2025L191.141 13.7129C192.176 14.8217 193.369 15.7426 194.674 16.4414C194.881 16.5523 195.119 16.5523 195.326 16.4414C196.631 15.7426 197.824 14.8217 198.859 13.7129L199.335 13.2025C199.733 12.776 200.103 12.3193 200.442 11.8358L200.911 11.1649C201.555 10.2459 202.022 9.19565 202.283 8.0755L202.364 7.73005C202.471 7.27244 202.525 6.80213 202.525 6.32979V5.96096C202.525 4.94911 202.218 3.96949 201.658 3.16917L201.427 2.83893C200.982 2.20376 200.355 1.76238 199.657 1.57557C198.933 1.38174 198.168 1.47057 197.495 1.83091L197.083 2.05157C196.551 2.33691 196.109 2.80519 195.834 3.39515C195.342 4.44885 194.655 4.44208 194.166 3.39515C193.891 2.80519 193.449 2.33691 192.917 2.05157L192.505 1.83091Z" fill="#687684"/>
<path fill-rule="evenodd" clip-rule="evenodd" d="M7.8 12.7167C8.13137 12.7167 8.4 12.9945 8.4 13.337V15.7661C11.6985 13.7742 13.683 12.3651 14.8799 11.1348C15.5745 10.4208 15.9565 9.81197 16.1784 9.2314C16.4015 8.64763 16.5 7.99539 16.5 7.13377C16.5 4.05039 14.0823 1.55082 11.1 1.55082H6.9C3.91766 1.55082 1.5 4.05039 1.5 7.13377C1.5 10.2171 3.91766 12.7167 6.9 12.7167H7.8ZM8.4 17.5588C16.3969 12.8007 18 10.8519 18 7.13377C18 3.1939 14.9108 0 11.1 0H6.9C3.08924 0 0 3.1939 0 7.13377C0 11.0736 3.08924 14.2675 6.9 14.2675V17.3799C6.9 17.8544 7.39435 18.1531 7.79316 17.9181C7.99942 17.7966 8.20168 17.6768 8.4 17.5588Z" fill="#687684"/>
<path d="M95.2813 2.16926C95.041 1.94358 94.6513 1.94358 94.411 2.16926L91.2253 5.1608C90.9249 5.4429 90.9249 5.90026 91.2253 6.18236C91.5257 6.46445 92.0128 6.46445 92.3132 6.18236L94.0769 4.52609V13.184C94.0769 15.1787 95.7989 16.7957 97.9231 16.7957H102.846C103.271 16.7957 103.615 16.4723 103.615 16.0734C103.615 15.6744 103.271 15.351 102.846 15.351H97.9231C96.6486 15.351 95.6154 14.3808 95.6154 13.184V4.52609L97.3791 6.18236C97.6796 6.46445 98.1666 6.46445 98.467 6.18236C98.7674 5.90026 98.7674 5.4429 98.467 5.1608L95.2813 2.16926Z" fill="#687684"/>
<path d="M108.719 16.8307C108.959 17.0564 109.349 17.0564 109.589 16.8307L112.775 13.8392C113.075 13.5571 113.075 13.0997 112.775 12.8176C112.474 12.5355 111.987 12.5355 111.687 12.8176L109.923 14.4739V5.81601C109.923 3.8213 108.201 2.20427 106.077 2.20427H101.154C100.729 2.20427 100.385 2.52767 100.385 2.92661C100.385 3.32556 100.729 3.64896 101.154 3.64896H106.077C107.351 3.64896 108.385 4.61918 108.385 5.81601V14.4739L106.621 12.8176C106.32 12.5355 105.833 12.5355 105.533 12.8176C105.233 13.0997 105.233 13.5571 105.533 13.8392L108.719 16.8307Z" fill="#687684"/>
<path fill-rule="evenodd" clip-rule="evenodd" d="M287.583 0.178089C287.813 -0.059363 288.187 -0.0593633 288.417 0.178089L292.653 4.54182C292.941 4.83864 292.941 5.31987 292.653 5.61669C292.365 5.9135 291.898 5.9135 291.61 5.61669L288.738 2.65792V11.7676C288.738 12.1874 288.407 12.5277 288 12.5277C287.593 12.5277 287.262 12.1874 287.262 11.7676V2.65792L284.39 5.61669C284.102 5.9135 283.635 5.9135 283.347 5.61669C283.059 5.31987 283.059 4.83864 283.347 4.54182L287.583 0.178089ZM279.738 9.79153C280.145 9.79153 280.475 10.1318 280.475 10.5516V15.4159C280.475 16.0035 280.938 16.4799 281.508 16.4799H294.492C295.062 16.4799 295.525 16.0035 295.525 15.4159V10.5516C295.525 10.1318 295.855 9.79153 296.262 9.79153C296.67 9.79153 297 10.1318 297 10.5516V15.4159C297 16.843 295.877 18 294.492 18H281.508C280.123 18 279 16.843 279 15.4159V10.5516C279 10.1318 279.33 9.79153 279.738 9.79153Z" fill="#687684"/>
</svg>
