<svg width="15" height="11" viewBox="0 0 15 11" fill="none" xmlns="http://www.w3.org/2000/svg">
<path d="M3.2584 0.190987C2.99955 -0.0636625 2.58159 -0.063662 2.32274 0.190987L0.225569 2.25412C-0.0751896 2.55 -0.0751896 3.03149 0.225569 3.32737C0.523971 3.62093 1.00605 3.62093 1.30445 3.32737L2.02556 2.61796V7.97172C2.02556 9.49419 3.27895 10.7212 4.81613 10.7212H8.05703C8.47553 10.7212 8.82204 10.3863 8.82204 9.9644C8.82204 9.54247 8.47553 9.20761 8.05703 9.20761H4.81613C4.11594 9.20761 3.55558 8.65031 3.55558 7.97172V2.61796L4.27669 3.32737C4.57509 3.62093 5.05717 3.62093 5.35557 3.32737C5.65633 3.03149 5.65633 2.55 5.35557 2.25412L3.2584 0.190987Z" fill="#687684"/>
<path d="M6.94297 0.140874C6.52447 0.140874 6.17796 0.475727 6.17796 0.897665C6.17796 1.3196 6.52447 1.65446 6.94297 1.65446H10.1839C10.8841 1.65446 11.4444 2.21176 11.4444 2.89035V8.2441L10.7233 7.5347C10.4249 7.24114 9.94283 7.24114 9.64443 7.5347C9.34367 7.83058 9.34367 8.31207 9.64443 8.60795L11.7416 10.6711C12.0005 10.9257 12.4184 10.9257 12.6773 10.6711L14.7744 8.60795C15.0752 8.31207 15.0752 7.83058 14.7744 7.5347C14.476 7.24114 13.9939 7.24114 13.6955 7.5347L12.9744 8.2441V2.89035C12.9744 1.36788 11.7211 0.140874 10.1839 0.140874H6.94297Z" fill="#687684"/>
</svg>
