<svg width="24" height="22" viewBox="0 0 24 22" fill="none" xmlns="http://www.w3.org/2000/svg">
<path d="M5.9568 21.2063C7.92565 7.79278 18.4821 0.0920051 23.9026 1.34904e-05C23.9579 -0.000924763 24.0003 0.0472124 24 0.102505C23.9643 6.51504 20.6016 6.82523 18.8328 6.98839C18.4241 7.02609 18.1005 7.05594 17.9227 7.15142C16.7248 7.43328 15.8968 8.24986 15.5445 8.66642C15.3857 8.85419 16.7587 9.07505 19.1682 8.86414C19.2561 8.85645 19.3096 8.95874 19.2533 9.0267C17.2583 11.4345 15.0367 11.9203 13.6443 12.2249C13.1914 12.3239 12.8261 12.4038 12.585 12.5244C10.93 14.1455 8.13322 17.8802 6.14067 21.2734C6.08513 21.3679 5.94087 21.3148 5.9568 21.2063Z" fill="white"/>
<path d="M5.00588 0.756417C5.42058 0.756417 5.75676 1.0926 5.75676 1.5073V5.01142H9.26088C9.67558 5.01142 10.0118 5.3476 10.0118 5.7623C10.0118 6.177 9.67558 6.51318 9.26088 6.51318H5.75676V10.0173C5.75676 10.432 5.42058 10.7682 5.00588 10.7682C4.59118 10.7682 4.255 10.432 4.255 10.0173V6.51318H0.750882C0.336181 6.51318 0 6.177 0 5.7623C0 5.3476 0.336181 5.01142 0.750882 5.01142H4.255V1.5073C4.255 1.0926 4.59118 0.756417 5.00588 0.756417Z" fill="white"/>
</svg>
