<svg width="23" height="23" viewBox="0 0 23 23" fill="none" xmlns="http://www.w3.org/2000/svg">
<path d="M11.0123 0.339594C11.1798 -0.113061 11.82 -0.113063 11.9875 0.339592L14.7872 7.90555C14.8398 8.04787 14.952 8.16007 15.0944 8.21273L22.6603 11.0124C23.113 11.1799 23.113 11.8201 22.6603 11.9876L15.0944 14.7873C14.952 14.8399 14.8398 14.9521 14.7872 15.0944L11.9875 22.6604C11.82 23.1131 11.1798 23.1131 11.0123 22.6604L8.21264 15.0944C8.15998 14.9521 8.04777 14.8399 7.90546 14.7873L0.339499 11.9876C-0.113156 11.8201 -0.113158 11.1799 0.339497 11.0124L7.90546 8.21273C8.04777 8.16007 8.15998 8.04787 8.21264 7.90555L11.0123 0.339594Z" fill="#724DBD"/>
</svg>
