<svg width="35" height="30" viewBox="0 0 35 30" fill="none" xmlns="http://www.w3.org/2000/svg">
<g filter="url(#filter0_d_4_3072)">
<mask id="path-1-inside-1_4_3072" fill="white">
<path d="M12.4931 22C9.48199 22.0029 6.53361 21.1373 4 19.5067C4.43887 19.5577 4.88035 19.583 5.32217 19.5824C7.81686 19.5864 10.2404 18.7497 12.2034 17.207C11.0471 17.1849 9.92659 16.8012 8.99851 16.1097C8.07043 15.4182 7.38118 14.4533 7.02712 13.35C7.37022 13.4166 7.71888 13.4502 8.06835 13.4503C8.5618 13.4504 9.05306 13.3847 9.52923 13.255C8.27504 13.0012 7.1471 12.3204 6.33676 11.3281C5.52642 10.3358 5.08358 9.09317 5.08337 7.81097C5.08337 7.78634 5.08337 7.76346 5.08337 7.74059C5.85242 8.16958 6.71277 8.40789 7.59251 8.43561C6.41938 7.65031 5.58919 6.44632 5.2711 5.06896C4.95301 3.69161 5.17096 2.24454 5.88054 1.02262C7.27055 2.73802 9.00492 4.1414 10.9711 5.14173C12.9373 6.14205 15.0914 6.71695 17.2937 6.82914C17.0133 5.63696 17.134 4.38535 17.637 3.26903C18.1399 2.15271 18.997 1.23427 20.0748 0.656603C21.1526 0.0789393 22.3907 -0.125558 23.5965 0.0749264C24.8023 0.275411 25.9081 0.869635 26.742 1.76515C27.9803 1.51846 29.1678 1.0627 30.2538 0.417335C29.84 1.70316 28.9747 2.79481 27.8184 3.48951C28.9167 3.35649 29.989 3.05996 31 2.60974C30.2558 3.72503 29.3194 4.69859 28.2345 5.48484C28.2468 5.72238 28.2521 5.96168 28.2521 6.20274C28.2521 13.5383 22.6772 22 12.4861 22"/>
</mask>
<path d="M12.4931 22C9.48199 22.0029 6.53361 21.1373 4 19.5067C4.43887 19.5577 4.88035 19.583 5.32217 19.5824C7.81686 19.5864 10.2404 18.7497 12.2034 17.207C11.0471 17.1849 9.92659 16.8012 8.99851 16.1097C8.07043 15.4182 7.38118 14.4533 7.02712 13.35C7.37022 13.4166 7.71888 13.4502 8.06835 13.4503C8.5618 13.4504 9.05306 13.3847 9.52923 13.255C8.27504 13.0012 7.1471 12.3204 6.33676 11.3281C5.52642 10.3358 5.08358 9.09317 5.08337 7.81097C5.08337 7.78634 5.08337 7.76346 5.08337 7.74059C5.85242 8.16958 6.71277 8.40789 7.59251 8.43561C6.41938 7.65031 5.58919 6.44632 5.2711 5.06896C4.95301 3.69161 5.17096 2.24454 5.88054 1.02262C7.27055 2.73802 9.00492 4.1414 10.9711 5.14173C12.9373 6.14205 15.0914 6.71695 17.2937 6.82914C17.0133 5.63696 17.134 4.38535 17.637 3.26903C18.1399 2.15271 18.997 1.23427 20.0748 0.656603C21.1526 0.0789393 22.3907 -0.125558 23.5965 0.0749264C24.8023 0.275411 25.9081 0.869635 26.742 1.76515C27.9803 1.51846 29.1678 1.0627 30.2538 0.417335C29.84 1.70316 28.9747 2.79481 27.8184 3.48951C28.9167 3.35649 29.989 3.05996 31 2.60974C30.2558 3.72503 29.3194 4.69859 28.2345 5.48484C28.2468 5.72238 28.2521 5.96168 28.2521 6.20274C28.2521 13.5383 22.6772 22 12.4861 22" fill="#4C9EEB"/>
<path d="M4 19.5067L4.1155 18.5134L3.4588 20.3476L4 19.5067ZM5.32217 19.5824L5.32377 18.5824L5.32074 18.5824L5.32217 19.5824ZM12.2034 17.207L12.8213 17.9932L15.0257 16.2607L12.2225 16.2072L12.2034 17.207ZM7.02712 13.35L7.21748 12.3683L5.55861 12.0467L6.07495 13.6556L7.02712 13.35ZM8.06835 13.4503L8.06783 14.4503H8.0682L8.06835 13.4503ZM9.52923 13.255L9.79205 14.2199L9.7276 12.2749L9.52923 13.255ZM5.08337 7.81097H4.08337L4.08337 7.81113L5.08337 7.81097ZM5.08337 7.74059L5.57052 6.86727L4.08337 6.03771V7.74059H5.08337ZM7.59251 8.43561L7.56102 9.43511L11.0474 9.54496L8.14879 7.60461L7.59251 8.43561ZM5.88054 1.02262L6.65748 0.393051L5.74422 -0.733988L5.01577 0.520448L5.88054 1.02262ZM17.2937 6.82914L17.2428 7.82785L18.5718 7.89555L18.2671 6.60021L17.2937 6.82914ZM26.742 1.76515L26.0102 2.44662L26.3903 2.85487L26.9374 2.74588L26.742 1.76515ZM30.2538 0.417335L31.2057 0.723629L32.0154 -1.79285L29.7429 -0.442315L30.2538 0.417335ZM27.8184 3.48951L27.3034 2.63232L27.9386 4.48226L27.8184 3.48951ZM31 2.60974L31.8318 3.16478L33.7497 0.290477L30.5932 1.69623L31 2.60974ZM28.2345 5.48484L27.6477 4.67514L27.2078 4.99396L27.2358 5.53652L28.2345 5.48484ZM12.4922 21C9.67341 21.0027 6.91325 20.1925 4.5412 18.6658L3.4588 20.3476C6.15398 22.0822 9.29056 23.0031 12.4941 23L12.4922 21ZM3.8845 20.5C4.36219 20.5556 4.84271 20.5831 5.3236 20.5824L5.32074 18.5824C4.91799 18.5829 4.51556 18.5599 4.1155 18.5134L3.8845 20.5ZM5.32057 20.5824C8.04011 20.5867 10.6819 19.6747 12.8213 17.9932L11.5855 16.4207C9.79899 17.8248 7.5936 18.586 5.32377 18.5824L5.32057 20.5824ZM12.2225 16.2072C11.2751 16.189 10.3568 15.8747 9.596 15.3078L8.40102 16.9116C9.49637 17.7278 10.8191 18.1807 12.1843 18.2068L12.2225 16.2072ZM9.596 15.3078C8.83516 14.7409 8.26978 13.9497 7.97929 13.0445L6.07495 13.6556C6.49258 14.957 7.3057 16.0955 8.40102 16.9116L9.596 15.3078ZM6.83676 14.3318C7.24241 14.4104 7.65463 14.4501 8.06783 14.4503L8.06887 12.4503C7.78312 12.4502 7.49804 12.4227 7.21748 12.3683L6.83676 14.3318ZM8.0682 14.4503C8.65049 14.4504 9.23019 14.3729 9.79205 14.2199L9.26641 12.2902C8.87594 12.3965 8.47311 12.4504 8.0685 12.4503L8.0682 14.4503ZM9.7276 12.2749C8.70015 12.0669 7.77569 11.5091 7.1113 10.6956L5.56222 11.9606C6.51851 13.1316 7.84994 13.9354 9.33086 14.2351L9.7276 12.2749ZM7.1113 10.6956C6.44687 9.88196 6.08354 8.86275 6.08337 7.81081L4.08337 7.81113C4.08362 9.32359 4.60597 10.7897 5.56222 11.9606L7.1113 10.6956ZM6.08337 7.81097C6.08337 7.81092 6.08337 7.81087 6.08337 7.81083C6.08337 7.81078 6.08337 7.81073 6.08337 7.81068C6.08337 7.81063 6.08337 7.81059 6.08337 7.81054C6.08337 7.81049 6.08337 7.81044 6.08337 7.81039C6.08337 7.81035 6.08337 7.8103 6.08337 7.81025C6.08337 7.8102 6.08337 7.81015 6.08337 7.8101C6.08337 7.81006 6.08337 7.81001 6.08337 7.80996C6.08337 7.80991 6.08337 7.80986 6.08337 7.80982C6.08337 7.80977 6.08337 7.80972 6.08337 7.80967C6.08337 7.80962 6.08337 7.80958 6.08337 7.80953C6.08337 7.80948 6.08337 7.80943 6.08337 7.80938C6.08337 7.80934 6.08337 7.80929 6.08337 7.80924C6.08337 7.80919 6.08337 7.80915 6.08337 7.8091C6.08337 7.80905 6.08337 7.809 6.08337 7.80895C6.08337 7.80891 6.08337 7.80886 6.08337 7.80881C6.08337 7.80876 6.08337 7.80871 6.08337 7.80867C6.08337 7.80862 6.08337 7.80857 6.08337 7.80852C6.08337 7.80847 6.08337 7.80843 6.08337 7.80838C6.08337 7.80833 6.08337 7.80828 6.08337 7.80824C6.08337 7.80819 6.08337 7.80814 6.08337 7.80809C6.08337 7.80804 6.08337 7.808 6.08337 7.80795C6.08337 7.8079 6.08337 7.80785 6.08337 7.8078C6.08337 7.80776 6.08337 7.80771 6.08337 7.80766C6.08337 7.80761 6.08337 7.80757 6.08337 7.80752C6.08337 7.80747 6.08337 7.80742 6.08337 7.80737C6.08337 7.80733 6.08337 7.80728 6.08337 7.80723C6.08337 7.80718 6.08337 7.80714 6.08337 7.80709C6.08337 7.80704 6.08337 7.80699 6.08337 7.80694C6.08337 7.8069 6.08337 7.80685 6.08337 7.8068C6.08337 7.80675 6.08337 7.80671 6.08337 7.80666C6.08337 7.80661 6.08337 7.80656 6.08337 7.80651C6.08337 7.80647 6.08337 7.80642 6.08337 7.80637C6.08337 7.80632 6.08337 7.80628 6.08337 7.80623C6.08337 7.80618 6.08337 7.80613 6.08337 7.80609C6.08337 7.80604 6.08337 7.80599 6.08337 7.80594C6.08337 7.80589 6.08337 7.80585 6.08337 7.8058C6.08337 7.80575 6.08337 7.8057 6.08337 7.80566C6.08337 7.80561 6.08337 7.80556 6.08337 7.80551C6.08337 7.80547 6.08337 7.80542 6.08337 7.80537C6.08337 7.80532 6.08337 7.80528 6.08337 7.80523C6.08337 7.80518 6.08337 7.80513 6.08337 7.80509C6.08337 7.80504 6.08337 7.80499 6.08337 7.80494C6.08337 7.80489 6.08337 7.80485 6.08337 7.8048C6.08337 7.80475 6.08337 7.8047 6.08337 7.80466C6.08337 7.80461 6.08337 7.80456 6.08337 7.80451C6.08337 7.80447 6.08337 7.80442 6.08337 7.80437C6.08337 7.80432 6.08337 7.80428 6.08337 7.80423C6.08337 7.80418 6.08337 7.80413 6.08337 7.80409C6.08337 7.80404 6.08337 7.80399 6.08337 7.80394C6.08337 7.8039 6.08337 7.80385 6.08337 7.8038C6.08337 7.80375 6.08337 7.80371 6.08337 7.80366C6.08337 7.80361 6.08337 7.80356 6.08337 7.80352C6.08337 7.80347 6.08337 7.80342 6.08337 7.80337C6.08337 7.80333 6.08337 7.80328 6.08337 7.80323C6.08337 7.80319 6.08337 7.80314 6.08337 7.80309C6.08337 7.80304 6.08337 7.803 6.08337 7.80295C6.08337 7.8029 6.08337 7.80285 6.08337 7.80281C6.08337 7.80276 6.08337 7.80271 6.08337 7.80266C6.08337 7.80262 6.08337 7.80257 6.08337 7.80252C6.08337 7.80247 6.08337 7.80243 6.08337 7.80238C6.08337 7.80233 6.08337 7.80229 6.08337 7.80224C6.08337 7.80219 6.08337 7.80214 6.08337 7.8021C6.08337 7.80205 6.08337 7.802 6.08337 7.80195C6.08337 7.80191 6.08337 7.80186 6.08337 7.80181C6.08337 7.80176 6.08337 7.80172 6.08337 7.80167C6.08337 7.80162 6.08337 7.80158 6.08337 7.80153C6.08337 7.80148 6.08337 7.80143 6.08337 7.80139C6.08337 7.80134 6.08337 7.80129 6.08337 7.80124C6.08337 7.8012 6.08337 7.80115 6.08337 7.8011C6.08337 7.80106 6.08337 7.80101 6.08337 7.80096C6.08337 7.80091 6.08337 7.80087 6.08337 7.80082C6.08337 7.80077 6.08337 7.80072 6.08337 7.80068C6.08337 7.80063 6.08337 7.80058 6.08337 7.80054C6.08337 7.80049 6.08337 7.80044 6.08337 7.80039C6.08337 7.80035 6.08337 7.8003 6.08337 7.80025C6.08337 7.80021 6.08337 7.80016 6.08337 7.80011C6.08337 7.80006 6.08337 7.80002 6.08337 7.79997C6.08337 7.79992 6.08337 7.79988 6.08337 7.79983C6.08337 7.79978 6.08337 7.79973 6.08337 7.79969C6.08337 7.79964 6.08337 7.79959 6.08337 7.79955C6.08337 7.7995 6.08337 7.79945 6.08337 7.7994C6.08337 7.79936 6.08337 7.79931 6.08337 7.79926C6.08337 7.79922 6.08337 7.79917 6.08337 7.79912C6.08337 7.79907 6.08337 7.79903 6.08337 7.79898C6.08337 7.79893 6.08337 7.79889 6.08337 7.79884C6.08337 7.79879 6.08337 7.79874 6.08337 7.7987C6.08337 7.79865 6.08337 7.7986 6.08337 7.79856C6.08337 7.79851 6.08337 7.79846 6.08337 7.79842C6.08337 7.79837 6.08337 7.79832 6.08337 7.79827C6.08337 7.79823 6.08337 7.79818 6.08337 7.79813C6.08337 7.79809 6.08337 7.79804 6.08337 7.79799C6.08337 7.79795 6.08337 7.7979 6.08337 7.79785C6.08337 7.7978 6.08337 7.79776 6.08337 7.79771C6.08337 7.79766 6.08337 7.79762 6.08337 7.79757C6.08337 7.79752 6.08337 7.79748 6.08337 7.79743C6.08337 7.79738 6.08337 7.79733 6.08337 7.79729C6.08337 7.79724 6.08337 7.79719 6.08337 7.79715C6.08337 7.7971 6.08337 7.79705 6.08337 7.79701C6.08337 7.79696 6.08337 7.79691 6.08337 7.79687C6.08337 7.79682 6.08337 7.79677 6.08337 7.79672C6.08337 7.79668 6.08337 7.79663 6.08337 7.79658C6.08337 7.79654 6.08337 7.79649 6.08337 7.79644C6.08337 7.7964 6.08337 7.79635 6.08337 7.7963C6.08337 7.79626 6.08337 7.79621 6.08337 7.79616C6.08337 7.79612 6.08337 7.79607 6.08337 7.79602C6.08337 7.79597 6.08337 7.79593 6.08337 7.79588C6.08337 7.79583 6.08337 7.79579 6.08337 7.79574C6.08337 7.79569 6.08337 7.79565 6.08337 7.7956C6.08337 7.79555 6.08337 7.79551 6.08337 7.79546C6.08337 7.79541 6.08337 7.79537 6.08337 7.79532C6.08337 7.79527 6.08337 7.79523 6.08337 7.79518C6.08337 7.79513 6.08337 7.79509 6.08337 7.79504C6.08337 7.79499 6.08337 7.79495 6.08337 7.7949C6.08337 7.79485 6.08337 7.7948 6.08337 7.79476C6.08337 7.79471 6.08337 7.79466 6.08337 7.79462C6.08337 7.79457 6.08337 7.79452 6.08337 7.79448C6.08337 7.79443 6.08337 7.79438 6.08337 7.79434C6.08337 7.79429 6.08337 7.79424 6.08337 7.7942C6.08337 7.79415 6.08337 7.7941 6.08337 7.79406C6.08337 7.79401 6.08337 7.79396 6.08337 7.79392C6.08337 7.79387 6.08337 7.79382 6.08337 7.79378C6.08337 7.79373 6.08337 7.79368 6.08337 7.79364C6.08337 7.79359 6.08337 7.79354 6.08337 7.7935C6.08337 7.79345 6.08337 7.7934 6.08337 7.79336C6.08337 7.79331 6.08337 7.79326 6.08337 7.79322C6.08337 7.79317 6.08337 7.79312 6.08337 7.79308C6.08337 7.79303 6.08337 7.79298 6.08337 7.79294C6.08337 7.79289 6.08337 7.79284 6.08337 7.7928C6.08337 7.79275 6.08337 7.7927 6.08337 7.79266C6.08337 7.79261 6.08337 7.79256 6.08337 7.79252C6.08337 7.79247 6.08337 7.79242 6.08337 7.79238C6.08337 7.79233 6.08337 7.79228 6.08337 7.79224C6.08337 7.79219 6.08337 7.79215 6.08337 7.7921C6.08337 7.79205 6.08337 7.79201 6.08337 7.79196C6.08337 7.79191 6.08337 7.79187 6.08337 7.79182C6.08337 7.79177 6.08337 7.79173 6.08337 7.79168C6.08337 7.79163 6.08337 7.79159 6.08337 7.79154C6.08337 7.79149 6.08337 7.79145 6.08337 7.7914C6.08337 7.79135 6.08337 7.79131 6.08337 7.79126C6.08337 7.79121 6.08337 7.79117 6.08337 7.79112C6.08337 7.79108 6.08337 7.79103 6.08337 7.79098C6.08337 7.79094 6.08337 7.79089 6.08337 7.79084C6.08337 7.7908 6.08337 7.79075 6.08337 7.7907C6.08337 7.79066 6.08337 7.79061 6.08337 7.79056C6.08337 7.79052 6.08337 7.79047 6.08337 7.79042C6.08337 7.79038 6.08337 7.79033 6.08337 7.79029C6.08337 7.79024 6.08337 7.79019 6.08337 7.79015C6.08337 7.7901 6.08337 7.79005 6.08337 7.79001C6.08337 7.78996 6.08337 7.78991 6.08337 7.78987C6.08337 7.78982 6.08337 7.78977 6.08337 7.78973C6.08337 7.78968 6.08337 7.78964 6.08337 7.78959C6.08337 7.78954 6.08337 7.7895 6.08337 7.78945C6.08337 7.7894 6.08337 7.78936 6.08337 7.78931C6.08337 7.78926 6.08337 7.78922 6.08337 7.78917C6.08337 7.78913 6.08337 7.78908 6.08337 7.78903C6.08337 7.78899 6.08337 7.78894 6.08337 7.78889C6.08337 7.78885 6.08337 7.7888 6.08337 7.78875C6.08337 7.78871 6.08337 7.78866 6.08337 7.78862C6.08337 7.78857 6.08337 7.78852 6.08337 7.78848C6.08337 7.78843 6.08337 7.78838 6.08337 7.78834C6.08337 7.78829 6.08337 7.78825 6.08337 7.7882C6.08337 7.78815 6.08337 7.78811 6.08337 7.78806C6.08337 7.78801 6.08337 7.78797 6.08337 7.78792C6.08337 7.78788 6.08337 7.78783 6.08337 7.78778C6.08337 7.78774 6.08337 7.78769 6.08337 7.78764C6.08337 7.7876 6.08337 7.78755 6.08337 7.78751C6.08337 7.78746 6.08337 7.78741 6.08337 7.78737C6.08337 7.78732 6.08337 7.78727 6.08337 7.78723C6.08337 7.78718 6.08337 7.78714 6.08337 7.78709C6.08337 7.78704 6.08337 7.787 6.08337 7.78695C6.08337 7.7869 6.08337 7.78686 6.08337 7.78681C6.08337 7.78677 6.08337 7.78672 6.08337 7.78667C6.08337 7.78663 6.08337 7.78658 6.08337 7.78653C6.08337 7.78649 6.08337 7.78644 6.08337 7.7864C6.08337 7.78635 6.08337 7.7863 6.08337 7.78626C6.08337 7.78621 6.08337 7.78617 6.08337 7.78612C6.08337 7.78607 6.08337 7.78603 6.08337 7.78598C6.08337 7.78593 6.08337 7.78589 6.08337 7.78584C6.08337 7.7858 6.08337 7.78575 6.08337 7.7857C6.08337 7.78566 6.08337 7.78561 6.08337 7.78557C6.08337 7.78552 6.08337 7.78547 6.08337 7.78543C6.08337 7.78538 6.08337 7.78533 6.08337 7.78529C6.08337 7.78524 6.08337 7.7852 6.08337 7.78515C6.08337 7.7851 6.08337 7.78506 6.08337 7.78501C6.08337 7.78497 6.08337 7.78492 6.08337 7.78487C6.08337 7.78483 6.08337 7.78478 6.08337 7.78474C6.08337 7.78469 6.08337 7.78464 6.08337 7.7846C6.08337 7.78455 6.08337 7.78451 6.08337 7.78446C6.08337 7.78441 6.08337 7.78437 6.08337 7.78432C6.08337 7.78428 6.08337 7.78423 6.08337 7.78418C6.08337 7.78414 6.08337 7.78409 6.08337 7.78404C6.08337 7.784 6.08337 7.78395 6.08337 7.78391C6.08337 7.78386 6.08337 7.78381 6.08337 7.78377C6.08337 7.78372 6.08337 7.78368 6.08337 7.78363C6.08337 7.78358 6.08337 7.78354 6.08337 7.78349C6.08337 7.78345 6.08337 7.7834 6.08337 7.78335C6.08337 7.78331 6.08337 7.78326 6.08337 7.78322C6.08337 7.78317 6.08337 7.78312 6.08337 7.78308C6.08337 7.78303 6.08337 7.78299 6.08337 7.78294C6.08337 7.7829 6.08337 7.78285 6.08337 7.7828C6.08337 7.78276 6.08337 7.78271 6.08337 7.78267C6.08337 7.78262 6.08337 7.78257 6.08337 7.78253C6.08337 7.78248 6.08337 7.78244 6.08337 7.78239C6.08337 7.78234 6.08337 7.7823 6.08337 7.78225C6.08337 7.78221 6.08337 7.78216 6.08337 7.78211C6.08337 7.78207 6.08337 7.78202 6.08337 7.78198C6.08337 7.78193 6.08337 7.78188 6.08337 7.78184C6.08337 7.78179 6.08337 7.78175 6.08337 7.7817C6.08337 7.78166 6.08337 7.78161 6.08337 7.78156C6.08337 7.78152 6.08337 7.78147 6.08337 7.78143C6.08337 7.78138 6.08337 7.78133 6.08337 7.78129C6.08337 7.78124 6.08337 7.7812 6.08337 7.78115C6.08337 7.78111 6.08337 7.78106 6.08337 7.78101C6.08337 7.78097 6.08337 7.78092 6.08337 7.78088C6.08337 7.78083 6.08337 7.78078 6.08337 7.78074C6.08337 7.78069 6.08337 7.78065 6.08337 7.7806C6.08337 7.78055 6.08337 7.78051 6.08337 7.78046C6.08337 7.78042 6.08337 7.78037 6.08337 7.78033C6.08337 7.78028 6.08337 7.78023 6.08337 7.78019C6.08337 7.78014 6.08337 7.7801 6.08337 7.78005C6.08337 7.78 6.08337 7.77996 6.08337 7.77991C6.08337 7.77987 6.08337 7.77982 6.08337 7.77978C6.08337 7.77973 6.08337 7.77968 6.08337 7.77964C6.08337 7.77959 6.08337 7.77955 6.08337 7.7795C6.08337 7.77946 6.08337 7.77941 6.08337 7.77936C6.08337 7.77932 6.08337 7.77927 6.08337 7.77923C6.08337 7.77918 6.08337 7.77914 6.08337 7.77909C6.08337 7.77904 6.08337 7.779 6.08337 7.77895C6.08337 7.77891 6.08337 7.77886 6.08337 7.77882C6.08337 7.77877 6.08337 7.77872 6.08337 7.77868C6.08337 7.77863 6.08337 7.77859 6.08337 7.77854C6.08337 7.7785 6.08337 7.77845 6.08337 7.7784C6.08337 7.77836 6.08337 7.77831 6.08337 7.77827C6.08337 7.77822 6.08337 7.77818 6.08337 7.77813C6.08337 7.77808 6.08337 7.77804 6.08337 7.77799C6.08337 7.77795 6.08337 7.7779 6.08337 7.77786C6.08337 7.77781 6.08337 7.77776 6.08337 7.77772C6.08337 7.77767 6.08337 7.77763 6.08337 7.77758C6.08337 7.77754 6.08337 7.77749 6.08337 7.77744C6.08337 7.7774 6.08337 7.77735 6.08337 7.77731C6.08337 7.77726 6.08337 7.77722 6.08337 7.77717C6.08337 7.77713 6.08337 7.77708 6.08337 7.77703C6.08337 7.77699 6.08337 7.77694 6.08337 7.7769C6.08337 7.77685 6.08337 7.77681 6.08337 7.77676C6.08337 7.77671 6.08337 7.77667 6.08337 7.77662C6.08337 7.77658 6.08337 7.77653 6.08337 7.77649C6.08337 7.77644 6.08337 7.7764 6.08337 7.77635C6.08337 7.7763 6.08337 7.77626 6.08337 7.77621C6.08337 7.77617 6.08337 7.77612 6.08337 7.77608C6.08337 7.77603 6.08337 7.77598 6.08337 7.77594C6.08337 7.77589 6.08337 7.77585 6.08337 7.7758C6.08337 7.77576 6.08337 7.77571 6.08337 7.77567C6.08337 7.77562 6.08337 7.77557 6.08337 7.77553C6.08337 7.77548 6.08337 7.77544 6.08337 7.77539C6.08337 7.77535 6.08337 7.7753 6.08337 7.77526C6.08337 7.77521 6.08337 7.77517 6.08337 7.77512C6.08337 7.77507 6.08337 7.77503 6.08337 7.77498C6.08337 7.77494 6.08337 7.77489 6.08337 7.77485C6.08337 7.7748 6.08337 7.77476 6.08337 7.77471C6.08337 7.77466 6.08337 7.77462 6.08337 7.77457C6.08337 7.77453 6.08337 7.77448 6.08337 7.77444C6.08337 7.77439 6.08337 7.77435 6.08337 7.7743C6.08337 7.77425 6.08337 7.77421 6.08337 7.77416C6.08337 7.77412 6.08337 7.77407 6.08337 7.77403C6.08337 7.77398 6.08337 7.77394 6.08337 7.77389C6.08337 7.77385 6.08337 7.7738 6.08337 7.77375C6.08337 7.77371 6.08337 7.77366 6.08337 7.77362C6.08337 7.77357 6.08337 7.77353 6.08337 7.77348C6.08337 7.77344 6.08337 7.77339 6.08337 7.77334C6.08337 7.7733 6.08337 7.77325 6.08337 7.77321C6.08337 7.77316 6.08337 7.77312 6.08337 7.77307C6.08337 7.77303 6.08337 7.77298 6.08337 7.77294C6.08337 7.77289 6.08337 7.77285 6.08337 7.7728C6.08337 7.77275 6.08337 7.77271 6.08337 7.77266C6.08337 7.77262 6.08337 7.77257 6.08337 7.77253C6.08337 7.77248 6.08337 7.77244 6.08337 7.77239C6.08337 7.77235 6.08337 7.7723 6.08337 7.77225C6.08337 7.77221 6.08337 7.77216 6.08337 7.77212C6.08337 7.77207 6.08337 7.77203 6.08337 7.77198C6.08337 7.77194 6.08337 7.77189 6.08337 7.77185C6.08337 7.7718 6.08337 7.77176 6.08337 7.77171C6.08337 7.77167 6.08337 7.77162 6.08337 7.77157C6.08337 7.77153 6.08337 7.77148 6.08337 7.77144C6.08337 7.77139 6.08337 7.77135 6.08337 7.7713C6.08337 7.77126 6.08337 7.77121 6.08337 7.77117C6.08337 7.77112 6.08337 7.77108 6.08337 7.77103C6.08337 7.77098 6.08337 7.77094 6.08337 7.77089C6.08337 7.77085 6.08337 7.7708 6.08337 7.77076C6.08337 7.77071 6.08337 7.77067 6.08337 7.77062C6.08337 7.77058 6.08337 7.77053 6.08337 7.77049C6.08337 7.77044 6.08337 7.7704 6.08337 7.77035C6.08337 7.7703 6.08337 7.77026 6.08337 7.77021C6.08337 7.77017 6.08337 7.77012 6.08337 7.77008C6.08337 7.77003 6.08337 7.76999 6.08337 7.76994C6.08337 7.7699 6.08337 7.76985 6.08337 7.76981C6.08337 7.76976 6.08337 7.76972 6.08337 7.76967C6.08337 7.76963 6.08337 7.76958 6.08337 7.76953C6.08337 7.76949 6.08337 7.76944 6.08337 7.7694C6.08337 7.76935 6.08337 7.76931 6.08337 7.76926C6.08337 7.76922 6.08337 7.76917 6.08337 7.76913C6.08337 7.76908 6.08337 7.76904 6.08337 7.76899C6.08337 7.76895 6.08337 7.7689 6.08337 7.76886C6.08337 7.76881 6.08337 7.76876 6.08337 7.76872C6.08337 7.76867 6.08337 7.76863 6.08337 7.76858C6.08337 7.76854 6.08337 7.76849 6.08337 7.76845C6.08337 7.7684 6.08337 7.76836 6.08337 7.76831C6.08337 7.76827 6.08337 7.76822 6.08337 7.76818C6.08337 7.76813 6.08337 7.76809 6.08337 7.76804C6.08337 7.768 6.08337 7.76795 6.08337 7.76791C6.08337 7.76786 6.08337 7.76782 6.08337 7.76777C6.08337 7.76772 6.08337 7.76768 6.08337 7.76763C6.08337 7.76759 6.08337 7.76754 6.08337 7.7675C6.08337 7.76745 6.08337 7.76741 6.08337 7.76736C6.08337 7.76732 6.08337 7.76727 6.08337 7.76723C6.08337 7.76718 6.08337 7.76714 6.08337 7.76709C6.08337 7.76705 6.08337 7.767 6.08337 7.76696C6.08337 7.76691 6.08337 7.76687 6.08337 7.76682C6.08337 7.76678 6.08337 7.76673 6.08337 7.76669C6.08337 7.76664 6.08337 7.76659 6.08337 7.76655C6.08337 7.7665 6.08337 7.76646 6.08337 7.76641C6.08337 7.76637 6.08337 7.76632 6.08337 7.76628C6.08337 7.76623 6.08337 7.76619 6.08337 7.76614C6.08337 7.7661 6.08337 7.76605 6.08337 7.76601C6.08337 7.76596 6.08337 7.76592 6.08337 7.76587C6.08337 7.76583 6.08337 7.76578 6.08337 7.76574C6.08337 7.76569 6.08337 7.76565 6.08337 7.7656C6.08337 7.76556 6.08337 7.76551 6.08337 7.76547C6.08337 7.76542 6.08337 7.76538 6.08337 7.76533C6.08337 7.76529 6.08337 7.76524 6.08337 7.7652C6.08337 7.76515 6.08337 7.76511 6.08337 7.76506C6.08337 7.76502 6.08337 7.76497 6.08337 7.76493C6.08337 7.76488 6.08337 7.76483 6.08337 7.76479C6.08337 7.76474 6.08337 7.7647 6.08337 7.76465C6.08337 7.76461 6.08337 7.76456 6.08337 7.76452C6.08337 7.76447 6.08337 7.76443 6.08337 7.76438C6.08337 7.76434 6.08337 7.76429 6.08337 7.76425C6.08337 7.7642 6.08337 7.76416 6.08337 7.76411C6.08337 7.76407 6.08337 7.76402 6.08337 7.76398C6.08337 7.76393 6.08337 7.76389 6.08337 7.76384C6.08337 7.7638 6.08337 7.76375 6.08337 7.76371C6.08337 7.76366 6.08337 7.76362 6.08337 7.76357C6.08337 7.76353 6.08337 7.76348 6.08337 7.76344C6.08337 7.76339 6.08337 7.76335 6.08337 7.7633C6.08337 7.76326 6.08337 7.76321 6.08337 7.76317C6.08337 7.76312 6.08337 7.76308 6.08337 7.76303C6.08337 7.76299 6.08337 7.76294 6.08337 7.7629C6.08337 7.76285 6.08337 7.76281 6.08337 7.76276C6.08337 7.76272 6.08337 7.76267 6.08337 7.76263C6.08337 7.76258 6.08337 7.76254 6.08337 7.76249C6.08337 7.76245 6.08337 7.7624 6.08337 7.76236C6.08337 7.76231 6.08337 7.76227 6.08337 7.76222C6.08337 7.76218 6.08337 7.76213 6.08337 7.76209C6.08337 7.76204 6.08337 7.762 6.08337 7.76195C6.08337 7.76191 6.08337 7.76186 6.08337 7.76182C6.08337 7.76177 6.08337 7.76173 6.08337 7.76168C6.08337 7.76164 6.08337 7.76159 6.08337 7.76155C6.08337 7.7615 6.08337 7.76146 6.08337 7.76141C6.08337 7.76137 6.08337 7.76132 6.08337 7.76128C6.08337 7.76123 6.08337 7.76119 6.08337 7.76114C6.08337 7.7611 6.08337 7.76105 6.08337 7.76101C6.08337 7.76096 6.08337 7.76092 6.08337 7.76087C6.08337 7.76083 6.08337 7.76078 6.08337 7.76074C6.08337 7.76069 6.08337 7.76065 6.08337 7.7606C6.08337 7.76056 6.08337 7.76051 6.08337 7.76047C6.08337 7.76042 6.08337 7.76038 6.08337 7.76033C6.08337 7.76029 6.08337 7.76024 6.08337 7.7602C6.08337 7.76015 6.08337 7.76011 6.08337 7.76006C6.08337 7.76002 6.08337 7.75997 6.08337 7.75993C6.08337 7.75988 6.08337 7.75984 6.08337 7.75979C6.08337 7.75975 6.08337 7.7597 6.08337 7.75966C6.08337 7.75961 6.08337 7.75957 6.08337 7.75952C6.08337 7.75948 6.08337 7.75943 6.08337 7.75939C6.08337 7.75934 6.08337 7.7593 6.08337 7.75925C6.08337 7.75921 6.08337 7.75916 6.08337 7.75912C6.08337 7.75907 6.08337 7.75903 6.08337 7.75898C6.08337 7.75894 6.08337 7.75889 6.08337 7.75885C6.08337 7.7588 6.08337 7.75876 6.08337 7.75871C6.08337 7.75867 6.08337 7.75862 6.08337 7.75858C6.08337 7.75853 6.08337 7.75849 6.08337 7.75844C6.08337 7.7584 6.08337 7.75836 6.08337 7.75831C6.08337 7.75827 6.08337 7.75822 6.08337 7.75818C6.08337 7.75813 6.08337 7.75809 6.08337 7.75804C6.08337 7.758 6.08337 7.75795 6.08337 7.75791C6.08337 7.75786 6.08337 7.75782 6.08337 7.75777C6.08337 7.75773 6.08337 7.75768 6.08337 7.75764C6.08337 7.75759 6.08337 7.75755 6.08337 7.7575C6.08337 7.75746 6.08337 7.75741 6.08337 7.75737C6.08337 7.75732 6.08337 7.75728 6.08337 7.75723C6.08337 7.75719 6.08337 7.75714 6.08337 7.7571C6.08337 7.75705 6.08337 7.75701 6.08337 7.75696C6.08337 7.75692 6.08337 7.75687 6.08337 7.75683C6.08337 7.75678 6.08337 7.75674 6.08337 7.75669C6.08337 7.75665 6.08337 7.7566 6.08337 7.75656C6.08337 7.75652 6.08337 7.75647 6.08337 7.75642C6.08337 7.75638 6.08337 7.75634 6.08337 7.75629C6.08337 7.75625 6.08337 7.7562 6.08337 7.75616C6.08337 7.75611 6.08337 7.75607 6.08337 7.75602C6.08337 7.75598 6.08337 7.75593 6.08337 7.75589C6.08337 7.75584 6.08337 7.7558 6.08337 7.75575C6.08337 7.75571 6.08337 7.75566 6.08337 7.75562C6.08337 7.75557 6.08337 7.75553 6.08337 7.75548C6.08337 7.75544 6.08337 7.75539 6.08337 7.75535C6.08337 7.7553 6.08337 7.75526 6.08337 7.75521C6.08337 7.75517 6.08337 7.75512 6.08337 7.75508C6.08337 7.75503 6.08337 7.75499 6.08337 7.75495C6.08337 7.7549 6.08337 7.75486 6.08337 7.75481C6.08337 7.75477 6.08337 7.75472 6.08337 7.75468C6.08337 7.75463 6.08337 7.75459 6.08337 7.75454C6.08337 7.7545 6.08337 7.75445 6.08337 7.75441C6.08337 7.75436 6.08337 7.75432 6.08337 7.75427C6.08337 7.75423 6.08337 7.75418 6.08337 7.75414C6.08337 7.75409 6.08337 7.75405 6.08337 7.754C6.08337 7.75396 6.08337 7.75391 6.08337 7.75387C6.08337 7.75382 6.08337 7.75378 6.08337 7.75374C6.08337 7.75369 6.08337 7.75365 6.08337 7.7536C6.08337 7.75356 6.08337 7.75351 6.08337 7.75347C6.08337 7.75342 6.08337 7.75338 6.08337 7.75333C6.08337 7.75329 6.08337 7.75324 6.08337 7.7532C6.08337 7.75315 6.08337 7.75311 6.08337 7.75306C6.08337 7.75302 6.08337 7.75297 6.08337 7.75293C6.08337 7.75288 6.08337 7.75284 6.08337 7.75279C6.08337 7.75275 6.08337 7.75271 6.08337 7.75266C6.08337 7.75262 6.08337 7.75257 6.08337 7.75253C6.08337 7.75248 6.08337 7.75244 6.08337 7.75239C6.08337 7.75235 6.08337 7.7523 6.08337 7.75226C6.08337 7.75221 6.08337 7.75217 6.08337 7.75212C6.08337 7.75208 6.08337 7.75203 6.08337 7.75199C6.08337 7.75194 6.08337 7.7519 6.08337 7.75185C6.08337 7.75181 6.08337 7.75176 6.08337 7.75172C6.08337 7.75168 6.08337 7.75163 6.08337 7.75159C6.08337 7.75154 6.08337 7.7515 6.08337 7.75145C6.08337 7.75141 6.08337 7.75136 6.08337 7.75132C6.08337 7.75127 6.08337 7.75123 6.08337 7.75118C6.08337 7.75114 6.08337 7.75109 6.08337 7.75105C6.08337 7.751 6.08337 7.75096 6.08337 7.75091C6.08337 7.75087 6.08337 7.75082 6.08337 7.75078C6.08337 7.75074 6.08337 7.75069 6.08337 7.75065C6.08337 7.7506 6.08337 7.75056 6.08337 7.75051C6.08337 7.75047 6.08337 7.75042 6.08337 7.75038C6.08337 7.75033 6.08337 7.75029 6.08337 7.75024C6.08337 7.7502 6.08337 7.75015 6.08337 7.75011C6.08337 7.75006 6.08337 7.75002 6.08337 7.74997C6.08337 7.74993 6.08337 7.74989 6.08337 7.74984C6.08337 7.7498 6.08337 7.74975 6.08337 7.74971C6.08337 7.74966 6.08337 7.74962 6.08337 7.74957C6.08337 7.74953 6.08337 7.74948 6.08337 7.74944C6.08337 7.74939 6.08337 7.74935 6.08337 7.7493C6.08337 7.74926 6.08337 7.74921 6.08337 7.74917C6.08337 7.74912 6.08337 7.74908 6.08337 7.74904C6.08337 7.74899 6.08337 7.74895 6.08337 7.7489C6.08337 7.74886 6.08337 7.74881 6.08337 7.74877C6.08337 7.74872 6.08337 7.74868 6.08337 7.74863C6.08337 7.74859 6.08337 7.74854 6.08337 7.7485C6.08337 7.74845 6.08337 7.74841 6.08337 7.74836C6.08337 7.74832 6.08337 7.74827 6.08337 7.74823C6.08337 7.74819 6.08337 7.74814 6.08337 7.7481C6.08337 7.74805 6.08337 7.74801 6.08337 7.74796C6.08337 7.74792 6.08337 7.74787 6.08337 7.74783C6.08337 7.74778 6.08337 7.74774 6.08337 7.74769C6.08337 7.74765 6.08337 7.7476 6.08337 7.74756C6.08337 7.74751 6.08337 7.74747 6.08337 7.74743C6.08337 7.74738 6.08337 7.74734 6.08337 7.74729C6.08337 7.74725 6.08337 7.7472 6.08337 7.74716C6.08337 7.74711 6.08337 7.74707 6.08337 7.74702C6.08337 7.74698 6.08337 7.74693 6.08337 7.74689C6.08337 7.74684 6.08337 7.7468 6.08337 7.74675C6.08337 7.74671 6.08337 7.74667 6.08337 7.74662C6.08337 7.74658 6.08337 7.74653 6.08337 7.74649C6.08337 7.74644 6.08337 7.7464 6.08337 7.74635C6.08337 7.74631 6.08337 7.74626 6.08337 7.74622C6.08337 7.74617 6.08337 7.74613 6.08337 7.74608C6.08337 7.74604 6.08337 7.746 6.08337 7.74595C6.08337 7.74591 6.08337 7.74586 6.08337 7.74582C6.08337 7.74577 6.08337 7.74573 6.08337 7.74568C6.08337 7.74564 6.08337 7.74559 6.08337 7.74555C6.08337 7.7455 6.08337 7.74546 6.08337 7.74541C6.08337 7.74537 6.08337 7.74532 6.08337 7.74528C6.08337 7.74523 6.08337 7.74519 6.08337 7.74515C6.08337 7.7451 6.08337 7.74506 6.08337 7.74501C6.08337 7.74497 6.08337 7.74492 6.08337 7.74488C6.08337 7.74483 6.08337 7.74479 6.08337 7.74474C6.08337 7.7447 6.08337 7.74465 6.08337 7.74461C6.08337 7.74456 6.08337 7.74452 6.08337 7.74448C6.08337 7.74443 6.08337 7.74439 6.08337 7.74434C6.08337 7.7443 6.08337 7.74425 6.08337 7.74421C6.08337 7.74416 6.08337 7.74412 6.08337 7.74407C6.08337 7.74403 6.08337 7.74398 6.08337 7.74394C6.08337 7.74389 6.08337 7.74385 6.08337 7.7438C6.08337 7.74376 6.08337 7.74372 6.08337 7.74367C6.08337 7.74363 6.08337 7.74358 6.08337 7.74354C6.08337 7.74349 6.08337 7.74345 6.08337 7.7434C6.08337 7.74336 6.08337 7.74331 6.08337 7.74327C6.08337 7.74322 6.08337 7.74318 6.08337 7.74313C6.08337 7.74309 6.08337 7.74305 6.08337 7.743C6.08337 7.74296 6.08337 7.74291 6.08337 7.74287C6.08337 7.74282 6.08337 7.74278 6.08337 7.74273C6.08337 7.74269 6.08337 7.74264 6.08337 7.7426C6.08337 7.74255 6.08337 7.74251 6.08337 7.74246C6.08337 7.74242 6.08337 7.74238 6.08337 7.74233C6.08337 7.74229 6.08337 7.74224 6.08337 7.7422C6.08337 7.74215 6.08337 7.74211 6.08337 7.74206C6.08337 7.74202 6.08337 7.74197 6.08337 7.74193C6.08337 7.74188 6.08337 7.74184 6.08337 7.74179C6.08337 7.74175 6.08337 7.7417 6.08337 7.74166C6.08337 7.74162 6.08337 7.74157 6.08337 7.74153C6.08337 7.74148 6.08337 7.74144 6.08337 7.74139C6.08337 7.74135 6.08337 7.7413 6.08337 7.74126C6.08337 7.74121 6.08337 7.74117 6.08337 7.74112C6.08337 7.74108 6.08337 7.74103 6.08337 7.74099C6.08337 7.74095 6.08337 7.7409 6.08337 7.74086C6.08337 7.74081 6.08337 7.74077 6.08337 7.74072C6.08337 7.74068 6.08337 7.74063 6.08337 7.74059H4.08337C4.08337 7.74063 4.08337 7.74068 4.08337 7.74072C4.08337 7.74077 4.08337 7.74081 4.08337 7.74086C4.08337 7.7409 4.08337 7.74095 4.08337 7.74099C4.08337 7.74103 4.08337 7.74108 4.08337 7.74112C4.08337 7.74117 4.08337 7.74121 4.08337 7.74126C4.08337 7.7413 4.08337 7.74135 4.08337 7.74139C4.08337 7.74144 4.08337 7.74148 4.08337 7.74153C4.08337 7.74157 4.08337 7.74162 4.08337 7.74166C4.08337 7.7417 4.08337 7.74175 4.08337 7.74179C4.08337 7.74184 4.08337 7.74188 4.08337 7.74193C4.08337 7.74197 4.08337 7.74202 4.08337 7.74206C4.08337 7.74211 4.08337 7.74215 4.08337 7.7422C4.08337 7.74224 4.08337 7.74229 4.08337 7.74233C4.08337 7.74238 4.08337 7.74242 4.08337 7.74246C4.08337 7.74251 4.08337 7.74255 4.08337 7.7426C4.08337 7.74264 4.08337 7.74269 4.08337 7.74273C4.08337 7.74278 4.08337 7.74282 4.08337 7.74287C4.08337 7.74291 4.08337 7.74296 4.08337 7.743C4.08337 7.74305 4.08337 7.74309 4.08337 7.74313C4.08337 7.74318 4.08337 7.74322 4.08337 7.74327C4.08337 7.74331 4.08337 7.74336 4.08337 7.7434C4.08337 7.74345 4.08337 7.74349 4.08337 7.74354C4.08337 7.74358 4.08337 7.74363 4.08337 7.74367C4.08337 7.74372 4.08337 7.74376 4.08337 7.7438C4.08337 7.74385 4.08337 7.74389 4.08337 7.74394C4.08337 7.74398 4.08337 7.74403 4.08337 7.74407C4.08337 7.74412 4.08337 7.74416 4.08337 7.74421C4.08337 7.74425 4.08337 7.7443 4.08337 7.74434C4.08337 7.74439 4.08337 7.74443 4.08337 7.74448C4.08337 7.74452 4.08337 7.74456 4.08337 7.74461C4.08337 7.74465 4.08337 7.7447 4.08337 7.74474C4.08337 7.74479 4.08337 7.74483 4.08337 7.74488C4.08337 7.74492 4.08337 7.74497 4.08337 7.74501C4.08337 7.74506 4.08337 7.7451 4.08337 7.74515C4.08337 7.74519 4.08337 7.74523 4.08337 7.74528C4.08337 7.74532 4.08337 7.74537 4.08337 7.74541C4.08337 7.74546 4.08337 7.7455 4.08337 7.74555C4.08337 7.74559 4.08337 7.74564 4.08337 7.74568C4.08337 7.74573 4.08337 7.74577 4.08337 7.74582C4.08337 7.74586 4.08337 7.74591 4.08337 7.74595C4.08337 7.746 4.08337 7.74604 4.08337 7.74608C4.08337 7.74613 4.08337 7.74617 4.08337 7.74622C4.08337 7.74626 4.08337 7.74631 4.08337 7.74635C4.08337 7.7464 4.08337 7.74644 4.08337 7.74649C4.08337 7.74653 4.08337 7.74658 4.08337 7.74662C4.08337 7.74667 4.08337 7.74671 4.08337 7.74675C4.08337 7.7468 4.08337 7.74684 4.08337 7.74689C4.08337 7.74693 4.08337 7.74698 4.08337 7.74702C4.08337 7.74707 4.08337 7.74711 4.08337 7.74716C4.08337 7.7472 4.08337 7.74725 4.08337 7.74729C4.08337 7.74734 4.08337 7.74738 4.08337 7.74743C4.08337 7.74747 4.08337 7.74751 4.08337 7.74756C4.08337 7.7476 4.08337 7.74765 4.08337 7.74769C4.08337 7.74774 4.08337 7.74778 4.08337 7.74783C4.08337 7.74787 4.08337 7.74792 4.08337 7.74796C4.08337 7.74801 4.08337 7.74805 4.08337 7.7481C4.08337 7.74814 4.08337 7.74819 4.08337 7.74823C4.08337 7.74827 4.08337 7.74832 4.08337 7.74836C4.08337 7.74841 4.08337 7.74845 4.08337 7.7485C4.08337 7.74854 4.08337 7.74859 4.08337 7.74863C4.08337 7.74868 4.08337 7.74872 4.08337 7.74877C4.08337 7.74881 4.08337 7.74886 4.08337 7.7489C4.08337 7.74895 4.08337 7.74899 4.08337 7.74904C4.08337 7.74908 4.08337 7.74912 4.08337 7.74917C4.08337 7.74921 4.08337 7.74926 4.08337 7.7493C4.08337 7.74935 4.08337 7.74939 4.08337 7.74944C4.08337 7.74948 4.08337 7.74953 4.08337 7.74957C4.08337 7.74962 4.08337 7.74966 4.08337 7.74971C4.08337 7.74975 4.08337 7.7498 4.08337 7.74984C4.08337 7.74989 4.08337 7.74993 4.08337 7.74997C4.08337 7.75002 4.08337 7.75006 4.08337 7.75011C4.08337 7.75015 4.08337 7.7502 4.08337 7.75024C4.08337 7.75029 4.08337 7.75033 4.08337 7.75038C4.08337 7.75042 4.08337 7.75047 4.08337 7.75051C4.08337 7.75056 4.08337 7.7506 4.08337 7.75065C4.08337 7.75069 4.08337 7.75074 4.08337 7.75078C4.08337 7.75082 4.08337 7.75087 4.08337 7.75091C4.08337 7.75096 4.08337 7.751 4.08337 7.75105C4.08337 7.75109 4.08337 7.75114 4.08337 7.75118C4.08337 7.75123 4.08337 7.75127 4.08337 7.75132C4.08337 7.75136 4.08337 7.75141 4.08337 7.75145C4.08337 7.7515 4.08337 7.75154 4.08337 7.75159C4.08337 7.75163 4.08337 7.75168 4.08337 7.75172C4.08337 7.75176 4.08337 7.75181 4.08337 7.75185C4.08337 7.7519 4.08337 7.75194 4.08337 7.75199C4.08337 7.75203 4.08337 7.75208 4.08337 7.75212C4.08337 7.75217 4.08337 7.75221 4.08337 7.75226C4.08337 7.7523 4.08337 7.75235 4.08337 7.75239C4.08337 7.75244 4.08337 7.75248 4.08337 7.75253C4.08337 7.75257 4.08337 7.75262 4.08337 7.75266C4.08337 7.75271 4.08337 7.75275 4.08337 7.75279C4.08337 7.75284 4.08337 7.75288 4.08337 7.75293C4.08337 7.75297 4.08337 7.75302 4.08337 7.75306C4.08337 7.75311 4.08337 7.75315 4.08337 7.7532C4.08337 7.75324 4.08337 7.75329 4.08337 7.75333C4.08337 7.75338 4.08337 7.75342 4.08337 7.75347C4.08337 7.75351 4.08337 7.75356 4.08337 7.7536C4.08337 7.75365 4.08337 7.75369 4.08337 7.75374C4.08337 7.75378 4.08337 7.75382 4.08337 7.75387C4.08337 7.75391 4.08337 7.75396 4.08337 7.754C4.08337 7.75405 4.08337 7.75409 4.08337 7.75414C4.08337 7.75418 4.08337 7.75423 4.08337 7.75427C4.08337 7.75432 4.08337 7.75436 4.08337 7.75441C4.08337 7.75445 4.08337 7.7545 4.08337 7.75454C4.08337 7.75459 4.08337 7.75463 4.08337 7.75468C4.08337 7.75472 4.08337 7.75477 4.08337 7.75481C4.08337 7.75486 4.08337 7.7549 4.08337 7.75495C4.08337 7.75499 4.08337 7.75503 4.08337 7.75508C4.08337 7.75512 4.08337 7.75517 4.08337 7.75521C4.08337 7.75526 4.08337 7.7553 4.08337 7.75535C4.08337 7.75539 4.08337 7.75544 4.08337 7.75548C4.08337 7.75553 4.08337 7.75557 4.08337 7.75562C4.08337 7.75566 4.08337 7.75571 4.08337 7.75575C4.08337 7.7558 4.08337 7.75584 4.08337 7.75589C4.08337 7.75593 4.08337 7.75598 4.08337 7.75602C4.08337 7.75607 4.08337 7.75611 4.08337 7.75616C4.08337 7.7562 4.08337 7.75625 4.08337 7.75629C4.08337 7.75634 4.08337 7.75638 4.08337 7.75642C4.08337 7.75647 4.08337 7.75652 4.08337 7.75656C4.08337 7.7566 4.08337 7.75665 4.08337 7.75669C4.08337 7.75674 4.08337 7.75678 4.08337 7.75683C4.08337 7.75687 4.08337 7.75692 4.08337 7.75696C4.08337 7.75701 4.08337 7.75705 4.08337 7.7571C4.08337 7.75714 4.08337 7.75719 4.08337 7.75723C4.08337 7.75728 4.08337 7.75732 4.08337 7.75737C4.08337 7.75741 4.08337 7.75746 4.08337 7.7575C4.08337 7.75755 4.08337 7.75759 4.08337 7.75764C4.08337 7.75768 4.08337 7.75773 4.08337 7.75777C4.08337 7.75782 4.08337 7.75786 4.08337 7.75791C4.08337 7.75795 4.08337 7.758 4.08337 7.75804C4.08337 7.75809 4.08337 7.75813 4.08337 7.75818C4.08337 7.75822 4.08337 7.75827 4.08337 7.75831C4.08337 7.75836 4.08337 7.7584 4.08337 7.75844C4.08337 7.75849 4.08337 7.75853 4.08337 7.75858C4.08337 7.75862 4.08337 7.75867 4.08337 7.75871C4.08337 7.75876 4.08337 7.7588 4.08337 7.75885C4.08337 7.75889 4.08337 7.75894 4.08337 7.75898C4.08337 7.75903 4.08337 7.75907 4.08337 7.75912C4.08337 7.75916 4.08337 7.75921 4.08337 7.75925C4.08337 7.7593 4.08337 7.75934 4.08337 7.75939C4.08337 7.75943 4.08337 7.75948 4.08337 7.75952C4.08337 7.75957 4.08337 7.75961 4.08337 7.75966C4.08337 7.7597 4.08337 7.75975 4.08337 7.75979C4.08337 7.75984 4.08337 7.75988 4.08337 7.75993C4.08337 7.75997 4.08337 7.76002 4.08337 7.76006C4.08337 7.76011 4.08337 7.76015 4.08337 7.7602C4.08337 7.76024 4.08337 7.76029 4.08337 7.76033C4.08337 7.76038 4.08337 7.76042 4.08337 7.76047C4.08337 7.76051 4.08337 7.76056 4.08337 7.7606C4.08337 7.76065 4.08337 7.76069 4.08337 7.76074C4.08337 7.76078 4.08337 7.76083 4.08337 7.76087C4.08337 7.76092 4.08337 7.76096 4.08337 7.76101C4.08337 7.76105 4.08337 7.7611 4.08337 7.76114C4.08337 7.76119 4.08337 7.76123 4.08337 7.76128C4.08337 7.76132 4.08337 7.76137 4.08337 7.76141C4.08337 7.76146 4.08337 7.7615 4.08337 7.76155C4.08337 7.76159 4.08337 7.76164 4.08337 7.76168C4.08337 7.76173 4.08337 7.76177 4.08337 7.76182C4.08337 7.76186 4.08337 7.76191 4.08337 7.76195C4.08337 7.762 4.08337 7.76204 4.08337 7.76209C4.08337 7.76213 4.08337 7.76218 4.08337 7.76222C4.08337 7.76227 4.08337 7.76231 4.08337 7.76236C4.08337 7.7624 4.08337 7.76245 4.08337 7.76249C4.08337 7.76254 4.08337 7.76258 4.08337 7.76263C4.08337 7.76267 4.08337 7.76272 4.08337 7.76276C4.08337 7.76281 4.08337 7.76285 4.08337 7.7629C4.08337 7.76294 4.08337 7.76299 4.08337 7.76303C4.08337 7.76308 4.08337 7.76312 4.08337 7.76317C4.08337 7.76321 4.08337 7.76326 4.08337 7.7633C4.08337 7.76335 4.08337 7.76339 4.08337 7.76344C4.08337 7.76348 4.08337 7.76353 4.08337 7.76357C4.08337 7.76362 4.08337 7.76366 4.08337 7.76371C4.08337 7.76375 4.08337 7.7638 4.08337 7.76384C4.08337 7.76389 4.08337 7.76393 4.08337 7.76398C4.08337 7.76402 4.08337 7.76407 4.08337 7.76411C4.08337 7.76416 4.08337 7.7642 4.08337 7.76425C4.08337 7.76429 4.08337 7.76434 4.08337 7.76438C4.08337 7.76443 4.08337 7.76447 4.08337 7.76452C4.08337 7.76456 4.08337 7.76461 4.08337 7.76465C4.08337 7.7647 4.08337 7.76474 4.08337 7.76479C4.08337 7.76483 4.08337 7.76488 4.08337 7.76493C4.08337 7.76497 4.08337 7.76502 4.08337 7.76506C4.08337 7.76511 4.08337 7.76515 4.08337 7.7652C4.08337 7.76524 4.08337 7.76529 4.08337 7.76533C4.08337 7.76538 4.08337 7.76542 4.08337 7.76547C4.08337 7.76551 4.08337 7.76556 4.08337 7.7656C4.08337 7.76565 4.08337 7.76569 4.08337 7.76574C4.08337 7.76578 4.08337 7.76583 4.08337 7.76587C4.08337 7.76592 4.08337 7.76596 4.08337 7.76601C4.08337 7.76605 4.08337 7.7661 4.08337 7.76614C4.08337 7.76619 4.08337 7.76623 4.08337 7.76628C4.08337 7.76632 4.08337 7.76637 4.08337 7.76641C4.08337 7.76646 4.08337 7.7665 4.08337 7.76655C4.08337 7.76659 4.08337 7.76664 4.08337 7.76669C4.08337 7.76673 4.08337 7.76678 4.08337 7.76682C4.08337 7.76687 4.08337 7.76691 4.08337 7.76696C4.08337 7.767 4.08337 7.76705 4.08337 7.76709C4.08337 7.76714 4.08337 7.76718 4.08337 7.76723C4.08337 7.76727 4.08337 7.76732 4.08337 7.76736C4.08337 7.76741 4.08337 7.76745 4.08337 7.7675C4.08337 7.76754 4.08337 7.76759 4.08337 7.76763C4.08337 7.76768 4.08337 7.76772 4.08337 7.76777C4.08337 7.76782 4.08337 7.76786 4.08337 7.76791C4.08337 7.76795 4.08337 7.768 4.08337 7.76804C4.08337 7.76809 4.08337 7.76813 4.08337 7.76818C4.08337 7.76822 4.08337 7.76827 4.08337 7.76831C4.08337 7.76836 4.08337 7.7684 4.08337 7.76845C4.08337 7.76849 4.08337 7.76854 4.08337 7.76858C4.08337 7.76863 4.08337 7.76867 4.08337 7.76872C4.08337 7.76876 4.08337 7.76881 4.08337 7.76886C4.08337 7.7689 4.08337 7.76895 4.08337 7.76899C4.08337 7.76904 4.08337 7.76908 4.08337 7.76913C4.08337 7.76917 4.08337 7.76922 4.08337 7.76926C4.08337 7.76931 4.08337 7.76935 4.08337 7.7694C4.08337 7.76944 4.08337 7.76949 4.08337 7.76953C4.08337 7.76958 4.08337 7.76963 4.08337 7.76967C4.08337 7.76972 4.08337 7.76976 4.08337 7.76981C4.08337 7.76985 4.08337 7.7699 4.08337 7.76994C4.08337 7.76999 4.08337 7.77003 4.08337 7.77008C4.08337 7.77012 4.08337 7.77017 4.08337 7.77021C4.08337 7.77026 4.08337 7.7703 4.08337 7.77035C4.08337 7.7704 4.08337 7.77044 4.08337 7.77049C4.08337 7.77053 4.08337 7.77058 4.08337 7.77062C4.08337 7.77067 4.08337 7.77071 4.08337 7.77076C4.08337 7.7708 4.08337 7.77085 4.08337 7.77089C4.08337 7.77094 4.08337 7.77098 4.08337 7.77103C4.08337 7.77108 4.08337 7.77112 4.08337 7.77117C4.08337 7.77121 4.08337 7.77126 4.08337 7.7713C4.08337 7.77135 4.08337 7.77139 4.08337 7.77144C4.08337 7.77148 4.08337 7.77153 4.08337 7.77157C4.08337 7.77162 4.08337 7.77167 4.08337 7.77171C4.08337 7.77176 4.08337 7.7718 4.08337 7.77185C4.08337 7.77189 4.08337 7.77194 4.08337 7.77198C4.08337 7.77203 4.08337 7.77207 4.08337 7.77212C4.08337 7.77216 4.08337 7.77221 4.08337 7.77225C4.08337 7.7723 4.08337 7.77235 4.08337 7.77239C4.08337 7.77244 4.08337 7.77248 4.08337 7.77253C4.08337 7.77257 4.08337 7.77262 4.08337 7.77266C4.08337 7.77271 4.08337 7.77275 4.08337 7.7728C4.08337 7.77285 4.08337 7.77289 4.08337 7.77294C4.08337 7.77298 4.08337 7.77303 4.08337 7.77307C4.08337 7.77312 4.08337 7.77316 4.08337 7.77321C4.08337 7.77325 4.08337 7.7733 4.08337 7.77334C4.08337 7.77339 4.08337 7.77344 4.08337 7.77348C4.08337 7.77353 4.08337 7.77357 4.08337 7.77362C4.08337 7.77366 4.08337 7.77371 4.08337 7.77375C4.08337 7.7738 4.08337 7.77385 4.08337 7.77389C4.08337 7.77394 4.08337 7.77398 4.08337 7.77403C4.08337 7.77407 4.08337 7.77412 4.08337 7.77416C4.08337 7.77421 4.08337 7.77425 4.08337 7.7743C4.08337 7.77435 4.08337 7.77439 4.08337 7.77444C4.08337 7.77448 4.08337 7.77453 4.08337 7.77457C4.08337 7.77462 4.08337 7.77466 4.08337 7.77471C4.08337 7.77476 4.08337 7.7748 4.08337 7.77485C4.08337 7.77489 4.08337 7.77494 4.08337 7.77498C4.08337 7.77503 4.08337 7.77507 4.08337 7.77512C4.08337 7.77517 4.08337 7.77521 4.08337 7.77526C4.08337 7.7753 4.08337 7.77535 4.08337 7.77539C4.08337 7.77544 4.08337 7.77548 4.08337 7.77553C4.08337 7.77557 4.08337 7.77562 4.08337 7.77567C4.08337 7.77571 4.08337 7.77576 4.08337 7.7758C4.08337 7.77585 4.08337 7.77589 4.08337 7.77594C4.08337 7.77598 4.08337 7.77603 4.08337 7.77608C4.08337 7.77612 4.08337 7.77617 4.08337 7.77621C4.08337 7.77626 4.08337 7.7763 4.08337 7.77635C4.08337 7.7764 4.08337 7.77644 4.08337 7.77649C4.08337 7.77653 4.08337 7.77658 4.08337 7.77662C4.08337 7.77667 4.08337 7.77671 4.08337 7.77676C4.08337 7.77681 4.08337 7.77685 4.08337 7.7769C4.08337 7.77694 4.08337 7.77699 4.08337 7.77703C4.08337 7.77708 4.08337 7.77713 4.08337 7.77717C4.08337 7.77722 4.08337 7.77726 4.08337 7.77731C4.08337 7.77735 4.08337 7.7774 4.08337 7.77744C4.08337 7.77749 4.08337 7.77754 4.08337 7.77758C4.08337 7.77763 4.08337 7.77767 4.08337 7.77772C4.08337 7.77776 4.08337 7.77781 4.08337 7.77786C4.08337 7.7779 4.08337 7.77795 4.08337 7.77799C4.08337 7.77804 4.08337 7.77808 4.08337 7.77813C4.08337 7.77818 4.08337 7.77822 4.08337 7.77827C4.08337 7.77831 4.08337 7.77836 4.08337 7.7784C4.08337 7.77845 4.08337 7.7785 4.08337 7.77854C4.08337 7.77859 4.08337 7.77863 4.08337 7.77868C4.08337 7.77872 4.08337 7.77877 4.08337 7.77882C4.08337 7.77886 4.08337 7.77891 4.08337 7.77895C4.08337 7.779 4.08337 7.77904 4.08337 7.77909C4.08337 7.77914 4.08337 7.77918 4.08337 7.77923C4.08337 7.77927 4.08337 7.77932 4.08337 7.77936C4.08337 7.77941 4.08337 7.77946 4.08337 7.7795C4.08337 7.77955 4.08337 7.77959 4.08337 7.77964C4.08337 7.77968 4.08337 7.77973 4.08337 7.77978C4.08337 7.77982 4.08337 7.77987 4.08337 7.77991C4.08337 7.77996 4.08337 7.78 4.08337 7.78005C4.08337 7.7801 4.08337 7.78014 4.08337 7.78019C4.08337 7.78023 4.08337 7.78028 4.08337 7.78033C4.08337 7.78037 4.08337 7.78042 4.08337 7.78046C4.08337 7.78051 4.08337 7.78055 4.08337 7.7806C4.08337 7.78065 4.08337 7.78069 4.08337 7.78074C4.08337 7.78078 4.08337 7.78083 4.08337 7.78088C4.08337 7.78092 4.08337 7.78097 4.08337 7.78101C4.08337 7.78106 4.08337 7.78111 4.08337 7.78115C4.08337 7.7812 4.08337 7.78124 4.08337 7.78129C4.08337 7.78133 4.08337 7.78138 4.08337 7.78143C4.08337 7.78147 4.08337 7.78152 4.08337 7.78156C4.08337 7.78161 4.08337 7.78166 4.08337 7.7817C4.08337 7.78175 4.08337 7.78179 4.08337 7.78184C4.08337 7.78188 4.08337 7.78193 4.08337 7.78198C4.08337 7.78202 4.08337 7.78207 4.08337 7.78211C4.08337 7.78216 4.08337 7.78221 4.08337 7.78225C4.08337 7.7823 4.08337 7.78234 4.08337 7.78239C4.08337 7.78244 4.08337 7.78248 4.08337 7.78253C4.08337 7.78257 4.08337 7.78262 4.08337 7.78267C4.08337 7.78271 4.08337 7.78276 4.08337 7.7828C4.08337 7.78285 4.08337 7.7829 4.08337 7.78294C4.08337 7.78299 4.08337 7.78303 4.08337 7.78308C4.08337 7.78312 4.08337 7.78317 4.08337 7.78322C4.08337 7.78326 4.08337 7.78331 4.08337 7.78335C4.08337 7.7834 4.08337 7.78345 4.08337 7.78349C4.08337 7.78354 4.08337 7.78358 4.08337 7.78363C4.08337 7.78368 4.08337 7.78372 4.08337 7.78377C4.08337 7.78381 4.08337 7.78386 4.08337 7.78391C4.08337 7.78395 4.08337 7.784 4.08337 7.78404C4.08337 7.78409 4.08337 7.78414 4.08337 7.78418C4.08337 7.78423 4.08337 7.78428 4.08337 7.78432C4.08337 7.78437 4.08337 7.78441 4.08337 7.78446C4.08337 7.78451 4.08337 7.78455 4.08337 7.7846C4.08337 7.78464 4.08337 7.78469 4.08337 7.78474C4.08337 7.78478 4.08337 7.78483 4.08337 7.78487C4.08337 7.78492 4.08337 7.78497 4.08337 7.78501C4.08337 7.78506 4.08337 7.7851 4.08337 7.78515C4.08337 7.7852 4.08337 7.78524 4.08337 7.78529C4.08337 7.78533 4.08337 7.78538 4.08337 7.78543C4.08337 7.78547 4.08337 7.78552 4.08337 7.78557C4.08337 7.78561 4.08337 7.78566 4.08337 7.7857C4.08337 7.78575 4.08337 7.7858 4.08337 7.78584C4.08337 7.78589 4.08337 7.78593 4.08337 7.78598C4.08337 7.78603 4.08337 7.78607 4.08337 7.78612C4.08337 7.78617 4.08337 7.78621 4.08337 7.78626C4.08337 7.7863 4.08337 7.78635 4.08337 7.7864C4.08337 7.78644 4.08337 7.78649 4.08337 7.78653C4.08337 7.78658 4.08337 7.78663 4.08337 7.78667C4.08337 7.78672 4.08337 7.78677 4.08337 7.78681C4.08337 7.78686 4.08337 7.7869 4.08337 7.78695C4.08337 7.787 4.08337 7.78704 4.08337 7.78709C4.08337 7.78714 4.08337 7.78718 4.08337 7.78723C4.08337 7.78727 4.08337 7.78732 4.08337 7.78737C4.08337 7.78741 4.08337 7.78746 4.08337 7.78751C4.08337 7.78755 4.08337 7.7876 4.08337 7.78764C4.08337 7.78769 4.08337 7.78774 4.08337 7.78778C4.08337 7.78783 4.08337 7.78788 4.08337 7.78792C4.08337 7.78797 4.08337 7.78801 4.08337 7.78806C4.08337 7.78811 4.08337 7.78815 4.08337 7.7882C4.08337 7.78825 4.08337 7.78829 4.08337 7.78834C4.08337 7.78838 4.08337 7.78843 4.08337 7.78848C4.08337 7.78852 4.08337 7.78857 4.08337 7.78862C4.08337 7.78866 4.08337 7.78871 4.08337 7.78875C4.08337 7.7888 4.08337 7.78885 4.08337 7.78889C4.08337 7.78894 4.08337 7.78899 4.08337 7.78903C4.08337 7.78908 4.08337 7.78913 4.08337 7.78917C4.08337 7.78922 4.08337 7.78926 4.08337 7.78931C4.08337 7.78936 4.08337 7.7894 4.08337 7.78945C4.08337 7.7895 4.08337 7.78954 4.08337 7.78959C4.08337 7.78964 4.08337 7.78968 4.08337 7.78973C4.08337 7.78977 4.08337 7.78982 4.08337 7.78987C4.08337 7.78991 4.08337 7.78996 4.08337 7.79001C4.08337 7.79005 4.08337 7.7901 4.08337 7.79015C4.08337 7.79019 4.08337 7.79024 4.08337 7.79029C4.08337 7.79033 4.08337 7.79038 4.08337 7.79042C4.08337 7.79047 4.08337 7.79052 4.08337 7.79056C4.08337 7.79061 4.08337 7.79066 4.08337 7.7907C4.08337 7.79075 4.08337 7.7908 4.08337 7.79084C4.08337 7.79089 4.08337 7.79094 4.08337 7.79098C4.08337 7.79103 4.08337 7.79108 4.08337 7.79112C4.08337 7.79117 4.08337 7.79121 4.08337 7.79126C4.08337 7.79131 4.08337 7.79135 4.08337 7.7914C4.08337 7.79145 4.08337 7.79149 4.08337 7.79154C4.08337 7.79159 4.08337 7.79163 4.08337 7.79168C4.08337 7.79173 4.08337 7.79177 4.08337 7.79182C4.08337 7.79187 4.08337 7.79191 4.08337 7.79196C4.08337 7.79201 4.08337 7.79205 4.08337 7.7921C4.08337 7.79215 4.08337 7.79219 4.08337 7.79224C4.08337 7.79228 4.08337 7.79233 4.08337 7.79238C4.08337 7.79242 4.08337 7.79247 4.08337 7.79252C4.08337 7.79256 4.08337 7.79261 4.08337 7.79266C4.08337 7.7927 4.08337 7.79275 4.08337 7.7928C4.08337 7.79284 4.08337 7.79289 4.08337 7.79294C4.08337 7.79298 4.08337 7.79303 4.08337 7.79308C4.08337 7.79312 4.08337 7.79317 4.08337 7.79322C4.08337 7.79326 4.08337 7.79331 4.08337 7.79336C4.08337 7.7934 4.08337 7.79345 4.08337 7.7935C4.08337 7.79354 4.08337 7.79359 4.08337 7.79364C4.08337 7.79368 4.08337 7.79373 4.08337 7.79378C4.08337 7.79382 4.08337 7.79387 4.08337 7.79392C4.08337 7.79396 4.08337 7.79401 4.08337 7.79406C4.08337 7.7941 4.08337 7.79415 4.08337 7.7942C4.08337 7.79424 4.08337 7.79429 4.08337 7.79434C4.08337 7.79438 4.08337 7.79443 4.08337 7.79448C4.08337 7.79452 4.08337 7.79457 4.08337 7.79462C4.08337 7.79466 4.08337 7.79471 4.08337 7.79476C4.08337 7.7948 4.08337 7.79485 4.08337 7.7949C4.08337 7.79495 4.08337 7.79499 4.08337 7.79504C4.08337 7.79509 4.08337 7.79513 4.08337 7.79518C4.08337 7.79523 4.08337 7.79527 4.08337 7.79532C4.08337 7.79537 4.08337 7.79541 4.08337 7.79546C4.08337 7.79551 4.08337 7.79555 4.08337 7.7956C4.08337 7.79565 4.08337 7.79569 4.08337 7.79574C4.08337 7.79579 4.08337 7.79583 4.08337 7.79588C4.08337 7.79593 4.08337 7.79597 4.08337 7.79602C4.08337 7.79607 4.08337 7.79612 4.08337 7.79616C4.08337 7.79621 4.08337 7.79626 4.08337 7.7963C4.08337 7.79635 4.08337 7.7964 4.08337 7.79644C4.08337 7.79649 4.08337 7.79654 4.08337 7.79658C4.08337 7.79663 4.08337 7.79668 4.08337 7.79672C4.08337 7.79677 4.08337 7.79682 4.08337 7.79687C4.08337 7.79691 4.08337 7.79696 4.08337 7.79701C4.08337 7.79705 4.08337 7.7971 4.08337 7.79715C4.08337 7.79719 4.08337 7.79724 4.08337 7.79729C4.08337 7.79733 4.08337 7.79738 4.08337 7.79743C4.08337 7.79748 4.08337 7.79752 4.08337 7.79757C4.08337 7.79762 4.08337 7.79766 4.08337 7.79771C4.08337 7.79776 4.08337 7.7978 4.08337 7.79785C4.08337 7.7979 4.08337 7.79795 4.08337 7.79799C4.08337 7.79804 4.08337 7.79809 4.08337 7.79813C4.08337 7.79818 4.08337 7.79823 4.08337 7.79827C4.08337 7.79832 4.08337 7.79837 4.08337 7.79842C4.08337 7.79846 4.08337 7.79851 4.08337 7.79856C4.08337 7.7986 4.08337 7.79865 4.08337 7.7987C4.08337 7.79874 4.08337 7.79879 4.08337 7.79884C4.08337 7.79889 4.08337 7.79893 4.08337 7.79898C4.08337 7.79903 4.08337 7.79907 4.08337 7.79912C4.08337 7.79917 4.08337 7.79922 4.08337 7.79926C4.08337 7.79931 4.08337 7.79936 4.08337 7.7994C4.08337 7.79945 4.08337 7.7995 4.08337 7.79955C4.08337 7.79959 4.08337 7.79964 4.08337 7.79969C4.08337 7.79973 4.08337 7.79978 4.08337 7.79983C4.08337 7.79988 4.08337 7.79992 4.08337 7.79997C4.08337 7.80002 4.08337 7.80006 4.08337 7.80011C4.08337 7.80016 4.08337 7.80021 4.08337 7.80025C4.08337 7.8003 4.08337 7.80035 4.08337 7.80039C4.08337 7.80044 4.08337 7.80049 4.08337 7.80054C4.08337 7.80058 4.08337 7.80063 4.08337 7.80068C4.08337 7.80072 4.08337 7.80077 4.08337 7.80082C4.08337 7.80087 4.08337 7.80091 4.08337 7.80096C4.08337 7.80101 4.08337 7.80106 4.08337 7.8011C4.08337 7.80115 4.08337 7.8012 4.08337 7.80124C4.08337 7.80129 4.08337 7.80134 4.08337 7.80139C4.08337 7.80143 4.08337 7.80148 4.08337 7.80153C4.08337 7.80158 4.08337 7.80162 4.08337 7.80167C4.08337 7.80172 4.08337 7.80176 4.08337 7.80181C4.08337 7.80186 4.08337 7.80191 4.08337 7.80195C4.08337 7.802 4.08337 7.80205 4.08337 7.8021C4.08337 7.80214 4.08337 7.80219 4.08337 7.80224C4.08337 7.80229 4.08337 7.80233 4.08337 7.80238C4.08337 7.80243 4.08337 7.80247 4.08337 7.80252C4.08337 7.80257 4.08337 7.80262 4.08337 7.80266C4.08337 7.80271 4.08337 7.80276 4.08337 7.80281C4.08337 7.80285 4.08337 7.8029 4.08337 7.80295C4.08337 7.803 4.08337 7.80304 4.08337 7.80309C4.08337 7.80314 4.08337 7.80319 4.08337 7.80323C4.08337 7.80328 4.08337 7.80333 4.08337 7.80337C4.08337 7.80342 4.08337 7.80347 4.08337 7.80352C4.08337 7.80356 4.08337 7.80361 4.08337 7.80366C4.08337 7.80371 4.08337 7.80375 4.08337 7.8038C4.08337 7.80385 4.08337 7.8039 4.08337 7.80394C4.08337 7.80399 4.08337 7.80404 4.08337 7.80409C4.08337 7.80413 4.08337 7.80418 4.08337 7.80423C4.08337 7.80428 4.08337 7.80432 4.08337 7.80437C4.08337 7.80442 4.08337 7.80447 4.08337 7.80451C4.08337 7.80456 4.08337 7.80461 4.08337 7.80466C4.08337 7.8047 4.08337 7.80475 4.08337 7.8048C4.08337 7.80485 4.08337 7.80489 4.08337 7.80494C4.08337 7.80499 4.08337 7.80504 4.08337 7.80509C4.08337 7.80513 4.08337 7.80518 4.08337 7.80523C4.08337 7.80528 4.08337 7.80532 4.08337 7.80537C4.08337 7.80542 4.08337 7.80547 4.08337 7.80551C4.08337 7.80556 4.08337 7.80561 4.08337 7.80566C4.08337 7.8057 4.08337 7.80575 4.08337 7.8058C4.08337 7.80585 4.08337 7.80589 4.08337 7.80594C4.08337 7.80599 4.08337 7.80604 4.08337 7.80609C4.08337 7.80613 4.08337 7.80618 4.08337 7.80623C4.08337 7.80628 4.08337 7.80632 4.08337 7.80637C4.08337 7.80642 4.08337 7.80647 4.08337 7.80651C4.08337 7.80656 4.08337 7.80661 4.08337 7.80666C4.08337 7.80671 4.08337 7.80675 4.08337 7.8068C4.08337 7.80685 4.08337 7.8069 4.08337 7.80694C4.08337 7.80699 4.08337 7.80704 4.08337 7.80709C4.08337 7.80714 4.08337 7.80718 4.08337 7.80723C4.08337 7.80728 4.08337 7.80733 4.08337 7.80737C4.08337 7.80742 4.08337 7.80747 4.08337 7.80752C4.08337 7.80757 4.08337 7.80761 4.08337 7.80766C4.08337 7.80771 4.08337 7.80776 4.08337 7.8078C4.08337 7.80785 4.08337 7.8079 4.08337 7.80795C4.08337 7.808 4.08337 7.80804 4.08337 7.80809C4.08337 7.80814 4.08337 7.80819 4.08337 7.80824C4.08337 7.80828 4.08337 7.80833 4.08337 7.80838C4.08337 7.80843 4.08337 7.80847 4.08337 7.80852C4.08337 7.80857 4.08337 7.80862 4.08337 7.80867C4.08337 7.80871 4.08337 7.80876 4.08337 7.80881C4.08337 7.80886 4.08337 7.80891 4.08337 7.80895C4.08337 7.809 4.08337 7.80905 4.08337 7.8091C4.08337 7.80915 4.08337 7.80919 4.08337 7.80924C4.08337 7.80929 4.08337 7.80934 4.08337 7.80938C4.08337 7.80943 4.08337 7.80948 4.08337 7.80953C4.08337 7.80958 4.08337 7.80962 4.08337 7.80967C4.08337 7.80972 4.08337 7.80977 4.08337 7.80982C4.08337 7.80986 4.08337 7.80991 4.08337 7.80996C4.08337 7.81001 4.08337 7.81006 4.08337 7.8101C4.08337 7.81015 4.08337 7.8102 4.08337 7.81025C4.08337 7.8103 4.08337 7.81035 4.08337 7.81039C4.08337 7.81044 4.08337 7.81049 4.08337 7.81054C4.08337 7.81059 4.08337 7.81063 4.08337 7.81068C4.08337 7.81073 4.08337 7.81078 4.08337 7.81083C4.08337 7.81087 4.08337 7.81092 4.08337 7.81097H6.08337ZM4.59622 8.6139C5.50482 9.12074 6.5214 9.40236 7.56102 9.43511L7.624 7.43611C6.90413 7.41343 6.20003 7.21842 5.57052 6.86727L4.59622 8.6139ZM8.14879 7.60461C7.18732 6.961 6.5064 5.97386 6.24546 4.84394L4.29675 5.29398C4.67198 6.91877 5.65144 8.33962 7.03623 9.26661L8.14879 7.60461ZM6.24546 4.84394C5.9845 3.71399 6.16336 2.52693 6.7453 1.52479L5.01577 0.520448C4.17857 1.96215 3.92152 3.66923 4.29675 5.29398L6.24546 4.84394ZM5.10359 1.65219C6.58182 3.47645 8.42638 4.96904 10.5177 6.03301L11.4246 4.25044C9.58347 3.31377 7.95928 1.99959 6.65748 0.393051L5.10359 1.65219ZM10.5177 6.03301C12.609 7.09698 14.9003 7.70851 17.2428 7.82785L17.3446 5.83044C15.2826 5.72539 13.2657 5.18711 11.4246 4.25044L10.5177 6.03301ZM18.2671 6.60021C18.0371 5.6222 18.1362 4.59545 18.5487 3.67982L16.7252 2.85824C16.1318 4.17526 15.9895 5.65173 16.3202 7.05807L18.2671 6.60021ZM18.5487 3.67982C18.9612 2.76422 19.664 2.01136 20.5472 1.53799L19.6024 -0.224784C18.33 0.457171 17.3187 1.54119 16.7252 2.85824L18.5487 3.67982ZM20.5472 1.53799C21.4304 1.06464 22.4447 0.897149 23.4325 1.06138L23.7605 -0.911531C22.3367 -1.14827 20.8748 -0.906759 19.6024 -0.224784L20.5472 1.53799ZM23.4325 1.06138C24.4203 1.22562 25.3265 1.71247 26.0102 2.44662L27.4739 1.08368C26.4897 0.0268034 25.1843 -0.6748 23.7605 -0.911531L23.4325 1.06138ZM26.9374 2.74588C28.287 2.47701 29.5812 1.98029 30.7646 1.27699L29.7429 -0.442315C28.7544 0.145112 27.6736 0.55991 26.5466 0.784423L26.9374 2.74588ZM29.3018 0.111041C28.9621 1.16674 28.2518 2.06249 27.3034 2.63232L28.3334 4.3467C29.6975 3.52713 30.7179 2.23958 31.2057 0.723629L29.3018 0.111041ZM27.9386 4.48226C29.1359 4.33724 30.3048 4.014 31.4068 3.52324L30.5932 1.69623C29.6732 2.10592 28.6975 2.37573 27.6981 2.49677L27.9386 4.48226ZM30.1682 2.05469C29.4898 3.0713 28.6363 3.95861 27.6477 4.67514L28.8213 6.29455C30.0024 5.43858 31.0218 4.37875 31.8318 3.16478L30.1682 2.05469ZM27.2358 5.53652C27.2471 5.75427 27.2521 5.97613 27.2521 6.20274H29.2521C29.2521 5.94723 29.2465 5.69049 29.2332 5.43317L27.2358 5.53652ZM27.2521 6.20274C27.2521 13.1103 22.0083 21 12.4861 21V23C23.346 23 29.2521 13.9663 29.2521 6.20274H27.2521Z" fill="black" mask="url(#path-1-inside-1_4_3072)"/>
</g>
<defs>
<filter id="filter0_d_4_3072" x="0" y="0" width="35" height="30" filterUnits="userSpaceOnUse" color-interpolation-filters="sRGB">
<feFlood flood-opacity="0" result="BackgroundImageFix"/>
<feColorMatrix in="SourceAlpha" type="matrix" values="0 0 0 0 0 0 0 0 0 0 0 0 0 0 0 0 0 0 127 0" result="hardAlpha"/>
<feOffset dy="4"/>
<feGaussianBlur stdDeviation="2"/>
<feComposite in2="hardAlpha" operator="out"/>
<feColorMatrix type="matrix" values="0 0 0 0 0 0 0 0 0 0 0 0 0 0 0 0 0 0 0.25 0"/>
<feBlend mode="normal" in2="BackgroundImageFix" result="effect1_dropShadow_4_3072"/>
<feBlend mode="normal" in="SourceGraphic" in2="effect1_dropShadow_4_3072" result="shape"/>
</filter>
</defs>
</svg>
